G04 Layer_Color=128*
%FSLAX25Y25*%
%MOIN*%
G70*
G01*
G75*
%ADD11C,0.00787*%
%ADD28C,0.00200*%
D11*
X0Y-177165D02*
X393701D01*
X0D02*
Y177165D01*
X393701Y-177165D02*
Y177165D01*
X0D02*
X393701D01*
D28*
X283465Y-110236D02*
X287402D01*
X285433Y-112205D02*
Y-108268D01*
X342520Y-110236D02*
X346457D01*
X344488Y-112205D02*
Y-108268D01*
X204724Y-110236D02*
X208661D01*
X206693Y-112205D02*
Y-108268D01*
X263779Y-110236D02*
X267717D01*
X265748Y-112205D02*
Y-108268D01*
X125984Y-110236D02*
X129921D01*
X127953Y-112205D02*
Y-108268D01*
X185039Y-110236D02*
X188976D01*
X187008Y-112205D02*
Y-108268D01*
X47244Y-110236D02*
X51181D01*
X49213Y-112205D02*
Y-108268D01*
X106299Y-110236D02*
X110236D01*
X108268Y-112205D02*
Y-108268D01*
X283465Y-78740D02*
X287402D01*
X285433Y-80709D02*
Y-76772D01*
X342520Y-78740D02*
X346457D01*
X344488Y-80709D02*
Y-76772D01*
X204724Y-78740D02*
X208661D01*
X206693Y-80709D02*
Y-76772D01*
X263779Y-78740D02*
X267717D01*
X265748Y-80709D02*
Y-76772D01*
X125984Y-78740D02*
X129921D01*
X127953Y-80709D02*
Y-76772D01*
X185039Y-78740D02*
X188976D01*
X187008Y-80709D02*
Y-76772D01*
X47244Y-78740D02*
X51181D01*
X49213Y-80709D02*
Y-76772D01*
X106299Y-78740D02*
X110236D01*
X108268Y-80709D02*
Y-76772D01*
X283465Y-47244D02*
X287402D01*
X285433Y-49213D02*
Y-45276D01*
X342520Y-47244D02*
X346457D01*
X344488Y-49213D02*
Y-45276D01*
X204724Y-47244D02*
X208661D01*
X206693Y-49213D02*
Y-45276D01*
X263779Y-47244D02*
X267717D01*
X265748Y-49213D02*
Y-45276D01*
X125984Y-47244D02*
X129921D01*
X127953Y-49213D02*
Y-45276D01*
X185039Y-47244D02*
X188976D01*
X187008Y-49213D02*
Y-45276D01*
X47244Y-47244D02*
X51181D01*
X49213Y-49213D02*
Y-45276D01*
X106299Y-47244D02*
X110236D01*
X108268Y-49213D02*
Y-45276D01*
X283465Y-15748D02*
X287402D01*
X285433Y-17717D02*
Y-13780D01*
X342520Y-15748D02*
X346457D01*
X344488Y-17717D02*
Y-13780D01*
X204724Y-15748D02*
X208661D01*
X206693Y-17717D02*
Y-13780D01*
X263779Y-15748D02*
X267717D01*
X265748Y-17717D02*
Y-13780D01*
X125984Y-15748D02*
X129921D01*
X127953Y-17717D02*
Y-13780D01*
X185039Y-15748D02*
X188976D01*
X187008Y-17717D02*
Y-13780D01*
X47244Y-15748D02*
X51181D01*
X49213Y-17717D02*
Y-13780D01*
X106299Y-15748D02*
X110236D01*
X108268Y-17717D02*
Y-13780D01*
X283465Y15748D02*
X287402D01*
X285433Y13780D02*
Y17717D01*
X342520Y15748D02*
X346457D01*
X344488Y13780D02*
Y17717D01*
X204724Y15748D02*
X208661D01*
X206693Y13780D02*
Y17717D01*
X263779Y15748D02*
X267717D01*
X265748Y13780D02*
Y17717D01*
X125984Y15748D02*
X129921D01*
X127953Y13780D02*
Y17717D01*
X185039Y15748D02*
X188976D01*
X187008Y13780D02*
Y17717D01*
X47244Y15748D02*
X51181D01*
X49213Y13780D02*
Y17717D01*
X106299Y15748D02*
X110236D01*
X108268Y13780D02*
Y17717D01*
X283465Y47244D02*
X287402D01*
X285433Y45276D02*
Y49213D01*
X342520Y47244D02*
X346457D01*
X344488Y45276D02*
Y49213D01*
X204724Y47244D02*
X208661D01*
X206693Y45276D02*
Y49213D01*
X263779Y47244D02*
X267717D01*
X265748Y45276D02*
Y49213D01*
X125984Y47244D02*
X129921D01*
X127953Y45276D02*
Y49213D01*
X185039Y47244D02*
X188976D01*
X187008Y45276D02*
Y49213D01*
X47244Y47244D02*
X51181D01*
X49213Y45276D02*
Y49213D01*
X106299Y47244D02*
X110236D01*
X108268Y45276D02*
Y49213D01*
X283465Y78740D02*
X287402D01*
X285433Y76772D02*
Y80709D01*
X342520Y78740D02*
X346457D01*
X344488Y76772D02*
Y80709D01*
X204724Y78740D02*
X208661D01*
X206693Y76772D02*
Y80709D01*
X263779Y78740D02*
X267717D01*
X265748Y76772D02*
Y80709D01*
X125984Y78740D02*
X129921D01*
X127953Y76772D02*
Y80709D01*
X185039Y78740D02*
X188976D01*
X187008Y76772D02*
Y80709D01*
X47244Y78740D02*
X51181D01*
X49213Y76772D02*
Y80709D01*
X106299Y78740D02*
X110236D01*
X108268Y76772D02*
Y80709D01*
X283465Y110236D02*
X287402D01*
X285433Y108268D02*
Y112205D01*
X342520Y110236D02*
X346457D01*
X344488Y108268D02*
Y112205D01*
X204724Y110236D02*
X208661D01*
X206693Y108268D02*
Y112205D01*
X263779Y110236D02*
X267717D01*
X265748Y108268D02*
Y112205D01*
X125984Y110236D02*
X129921D01*
X127953Y108268D02*
Y112205D01*
X185039Y110236D02*
X188976D01*
X187008Y108268D02*
Y112205D01*
X47244Y110236D02*
X51181D01*
X49213Y108268D02*
Y112205D01*
X106299Y110236D02*
X110236D01*
X108268Y108268D02*
Y112205D01*
X80571Y171496D02*
X86279D01*
X83425Y168642D02*
Y174350D01*
X100571Y171496D02*
X106280D01*
X103425Y168642D02*
Y174350D01*
X90571Y171496D02*
X96280D01*
X93425Y168642D02*
Y174350D01*
X110571Y161496D02*
X116279D01*
X113425Y158642D02*
Y164350D01*
X110571Y171496D02*
X116279D01*
X113425Y168642D02*
Y174350D01*
X110571Y151496D02*
X116279D01*
X113425Y148642D02*
Y154350D01*
X100571Y141496D02*
X106280D01*
X103425Y138642D02*
Y144350D01*
X110571Y141496D02*
X116279D01*
X113425Y138642D02*
Y144350D01*
X90571Y141496D02*
X96280D01*
X93425Y138642D02*
Y144350D01*
X80571Y141496D02*
X86279D01*
X83425Y138642D02*
Y144350D01*
X80571Y151496D02*
X86279D01*
X83425Y148642D02*
Y154350D01*
X80571Y161496D02*
X86279D01*
X83425Y158642D02*
Y164350D01*
X90571Y151496D02*
X96280D01*
X93425Y148642D02*
Y154350D01*
X90571Y161496D02*
X96280D01*
X93425Y158642D02*
Y164350D01*
X100571Y151496D02*
X106280D01*
X103425Y148642D02*
Y154350D01*
X100571Y161496D02*
X106280D01*
X103425Y158642D02*
Y164350D01*
X307421Y-171496D02*
X313130D01*
X310276Y-174350D02*
Y-168642D01*
X287421Y-171496D02*
X293130D01*
X290276Y-174350D02*
Y-168642D01*
X297421Y-171496D02*
X303130D01*
X300276Y-174350D02*
Y-168642D01*
X277421Y-161496D02*
X283130D01*
X280276Y-164350D02*
Y-158642D01*
X277421Y-171496D02*
X283130D01*
X280276Y-174350D02*
Y-168642D01*
X277421Y-151496D02*
X283130D01*
X280276Y-154350D02*
Y-148642D01*
X287421Y-141496D02*
X293130D01*
X290276Y-144350D02*
Y-138642D01*
X277421Y-141496D02*
X283130D01*
X280276Y-144350D02*
Y-138642D01*
X297421Y-141496D02*
X303130D01*
X300276Y-144350D02*
Y-138642D01*
X307421Y-141496D02*
X313130D01*
X310276Y-144350D02*
Y-138642D01*
X307421Y-151496D02*
X313130D01*
X310276Y-154350D02*
Y-148642D01*
X307421Y-161496D02*
X313130D01*
X310276Y-164350D02*
Y-158642D01*
X297421Y-151496D02*
X303130D01*
X300276Y-154350D02*
Y-148642D01*
X297421Y-161496D02*
X303130D01*
X300276Y-164350D02*
Y-158642D01*
X287421Y-151496D02*
X293130D01*
X290276Y-154350D02*
Y-148642D01*
X287421Y-161496D02*
X293130D01*
X290276Y-164350D02*
Y-158642D01*
X277421Y171496D02*
X283130D01*
X280276Y168642D02*
Y174350D01*
X297421Y171496D02*
X303130D01*
X300276Y168642D02*
Y174350D01*
X287421Y171496D02*
X293130D01*
X290276Y168642D02*
Y174350D01*
X307421Y161496D02*
X313130D01*
X310276Y158642D02*
Y164350D01*
X307421Y171496D02*
X313130D01*
X310276Y168642D02*
Y174350D01*
X307421Y151496D02*
X313130D01*
X310276Y148642D02*
Y154350D01*
X297421Y141496D02*
X303130D01*
X300276Y138642D02*
Y144350D01*
X307421Y141496D02*
X313130D01*
X310276Y138642D02*
Y144350D01*
X287421Y141496D02*
X293130D01*
X290276Y138642D02*
Y144350D01*
X277421Y141496D02*
X283130D01*
X280276Y138642D02*
Y144350D01*
X277421Y151496D02*
X283130D01*
X280276Y148642D02*
Y154350D01*
X277421Y161496D02*
X283130D01*
X280276Y158642D02*
Y164350D01*
X287421Y151496D02*
X293130D01*
X290276Y148642D02*
Y154350D01*
X287421Y161496D02*
X293130D01*
X290276Y158642D02*
Y164350D01*
X297421Y151496D02*
X303130D01*
X300276Y148642D02*
Y154350D01*
X297421Y161496D02*
X303130D01*
X300276Y158642D02*
Y164350D01*
X110571Y-171496D02*
X116279D01*
X113425Y-174350D02*
Y-168642D01*
X90571Y-171496D02*
X96280D01*
X93425Y-174350D02*
Y-168642D01*
X100571Y-171496D02*
X106280D01*
X103425Y-174350D02*
Y-168642D01*
X80571Y-161496D02*
X86279D01*
X83425Y-164350D02*
Y-158642D01*
X80571Y-171496D02*
X86279D01*
X83425Y-174350D02*
Y-168642D01*
X80571Y-151496D02*
X86279D01*
X83425Y-154350D02*
Y-148642D01*
X90571Y-141496D02*
X96280D01*
X93425Y-144350D02*
Y-138642D01*
X80571Y-141496D02*
X86279D01*
X83425Y-144350D02*
Y-138642D01*
X100571Y-141496D02*
X106280D01*
X103425Y-144350D02*
Y-138642D01*
X110571Y-141496D02*
X116279D01*
X113425Y-144350D02*
Y-138642D01*
X110571Y-151496D02*
X116279D01*
X113425Y-154350D02*
Y-148642D01*
X110571Y-161496D02*
X116279D01*
X113425Y-164350D02*
Y-158642D01*
X100571Y-151496D02*
X106280D01*
X103425Y-154350D02*
Y-148642D01*
X100571Y-161496D02*
X106280D01*
X103425Y-164350D02*
Y-158642D01*
X90571Y-151496D02*
X96280D01*
X93425Y-154350D02*
Y-148642D01*
X90571Y-161496D02*
X96280D01*
X93425Y-164350D02*
Y-158642D01*
X325787Y-157480D02*
X343504D01*
X334646Y-166339D02*
Y-148622D01*
X50197Y157480D02*
X67913D01*
X59055Y148622D02*
Y166339D01*
X50197Y-157480D02*
X67913D01*
X59055Y-166339D02*
Y-148622D01*
X10827Y-157480D02*
X28543D01*
X19685Y-166339D02*
Y-148622D01*
X10827Y157480D02*
X28543D01*
X19685Y148622D02*
Y166339D01*
X325787Y157480D02*
X343504D01*
X334646Y148622D02*
Y166339D01*
X365158Y157480D02*
X382874D01*
X374016Y148622D02*
Y166339D01*
X365158Y-157480D02*
X382874D01*
X374016Y-166339D02*
Y-148622D01*
X6767Y-150591D02*
X8736D01*
X7752Y-151575D02*
Y-149606D01*
X18701Y-143701D02*
X20669D01*
X19685Y-144685D02*
Y-142717D01*
X11811Y-145547D02*
X13780D01*
X12795Y-146531D02*
Y-144563D01*
X6767Y-164370D02*
X8736D01*
X7752Y-165354D02*
Y-163386D01*
X4921Y-157480D02*
X6890D01*
X5906Y-158465D02*
Y-156496D01*
X11811Y-169414D02*
X13780D01*
X12795Y-170398D02*
Y-168430D01*
X25591Y-169414D02*
X27559D01*
X26575Y-170398D02*
Y-168430D01*
X18701Y-171260D02*
X20669D01*
X19685Y-172244D02*
Y-170276D01*
X30634Y-164370D02*
X32603D01*
X31618Y-165354D02*
Y-163386D01*
X30634Y-150591D02*
X32603D01*
X31618Y-151575D02*
Y-149606D01*
X32480Y-157480D02*
X34449D01*
X33465Y-158465D02*
Y-156496D01*
X25591Y-145547D02*
X27559D01*
X26575Y-146531D02*
Y-144563D01*
X46137Y-150591D02*
X48106D01*
X47122Y-151575D02*
Y-149606D01*
X58071Y-143701D02*
X60039D01*
X59055Y-144685D02*
Y-142717D01*
X51181Y-145547D02*
X53150D01*
X52165Y-146531D02*
Y-144563D01*
X46137Y-164370D02*
X48106D01*
X47122Y-165354D02*
Y-163386D01*
X44291Y-157480D02*
X46260D01*
X45276Y-158465D02*
Y-156496D01*
X51181Y-169414D02*
X53150D01*
X52165Y-170398D02*
Y-168430D01*
X64961Y-169414D02*
X66929D01*
X65945Y-170398D02*
Y-168430D01*
X58071Y-171260D02*
X60039D01*
X59055Y-172244D02*
Y-170276D01*
X70004Y-164370D02*
X71973D01*
X70989Y-165354D02*
Y-163386D01*
X70004Y-150591D02*
X71973D01*
X70989Y-151575D02*
Y-149606D01*
X71850Y-157480D02*
X73819D01*
X72835Y-158465D02*
Y-156496D01*
X64961Y-145547D02*
X66929D01*
X65945Y-146531D02*
Y-144563D01*
X361098Y-150591D02*
X363067D01*
X362082Y-151575D02*
Y-149606D01*
X373031Y-143701D02*
X375000D01*
X374016Y-144685D02*
Y-142717D01*
X366142Y-145547D02*
X368110D01*
X367126Y-146531D02*
Y-144563D01*
X361098Y-164370D02*
X363067D01*
X362082Y-165354D02*
Y-163386D01*
X359252Y-157480D02*
X361221D01*
X360236Y-158465D02*
Y-156496D01*
X366142Y-169414D02*
X368110D01*
X367126Y-170398D02*
Y-168430D01*
X379921Y-169414D02*
X381890D01*
X380906Y-170398D02*
Y-168430D01*
X373031Y-171260D02*
X375000D01*
X374016Y-172244D02*
Y-170276D01*
X384965Y-164370D02*
X386933D01*
X385949Y-165354D02*
Y-163386D01*
X384965Y-150591D02*
X386933D01*
X385949Y-151575D02*
Y-149606D01*
X386811Y-157480D02*
X388779D01*
X387795Y-158465D02*
Y-156496D01*
X379921Y-145547D02*
X381890D01*
X380906Y-146531D02*
Y-144563D01*
X361098Y164370D02*
X363067D01*
X362082Y163386D02*
Y165354D01*
X373031Y171260D02*
X375000D01*
X374016Y170276D02*
Y172244D01*
X366142Y169414D02*
X368110D01*
X367126Y168430D02*
Y170398D01*
X361098Y150591D02*
X363067D01*
X362082Y149606D02*
Y151575D01*
X359252Y157480D02*
X361221D01*
X360236Y156496D02*
Y158465D01*
X366142Y145547D02*
X368110D01*
X367126Y144563D02*
Y146531D01*
X379921Y145547D02*
X381890D01*
X380906Y144563D02*
Y146531D01*
X373031Y143701D02*
X375000D01*
X374016Y142717D02*
Y144685D01*
X384965Y150591D02*
X386933D01*
X385949Y149606D02*
Y151575D01*
X384965Y164370D02*
X386933D01*
X385949Y163386D02*
Y165354D01*
X386811Y157480D02*
X388779D01*
X387795Y156496D02*
Y158465D01*
X379921Y169414D02*
X381890D01*
X380906Y168430D02*
Y170398D01*
X321728Y164370D02*
X323696D01*
X322712Y163386D02*
Y165354D01*
X333661Y171260D02*
X335630D01*
X334646Y170276D02*
Y172244D01*
X326772Y169414D02*
X328740D01*
X327756Y168430D02*
Y170398D01*
X321728Y150591D02*
X323696D01*
X322712Y149606D02*
Y151575D01*
X319882Y157480D02*
X321850D01*
X320866Y156496D02*
Y158465D01*
X326772Y145547D02*
X328740D01*
X327756Y144563D02*
Y146531D01*
X340551Y145547D02*
X342520D01*
X341535Y144563D02*
Y146531D01*
X333661Y143701D02*
X335630D01*
X334646Y142717D02*
Y144685D01*
X345595Y150591D02*
X347563D01*
X346579Y149606D02*
Y151575D01*
X345595Y164370D02*
X347563D01*
X346579Y163386D02*
Y165354D01*
X347441Y157480D02*
X349410D01*
X348425Y156496D02*
Y158465D01*
X340551Y169414D02*
X342520D01*
X341535Y168430D02*
Y170398D01*
X46137Y164370D02*
X48106D01*
X47122Y163386D02*
Y165354D01*
X58071Y171260D02*
X60039D01*
X59055Y170276D02*
Y172244D01*
X51181Y169414D02*
X53150D01*
X52165Y168430D02*
Y170398D01*
X46137Y150591D02*
X48106D01*
X47122Y149606D02*
Y151575D01*
X44291Y157480D02*
X46260D01*
X45276Y156496D02*
Y158465D01*
X51181Y145547D02*
X53150D01*
X52165Y144563D02*
Y146531D01*
X64961Y145547D02*
X66929D01*
X65945Y144563D02*
Y146531D01*
X58071Y143701D02*
X60039D01*
X59055Y142717D02*
Y144685D01*
X70004Y150591D02*
X71973D01*
X70989Y149606D02*
Y151575D01*
X70004Y164370D02*
X71973D01*
X70989Y163386D02*
Y165354D01*
X71850Y157480D02*
X73819D01*
X72835Y156496D02*
Y158465D01*
X64961Y169414D02*
X66929D01*
X65945Y168430D02*
Y170398D01*
X6767Y164370D02*
X8736D01*
X7752Y163386D02*
Y165354D01*
X18701Y171260D02*
X20669D01*
X19685Y170276D02*
Y172244D01*
X11811Y169414D02*
X13780D01*
X12795Y168430D02*
Y170398D01*
X6767Y150591D02*
X8736D01*
X7752Y149606D02*
Y151575D01*
X4921Y157480D02*
X6890D01*
X5906Y156496D02*
Y158465D01*
X11811Y145547D02*
X13780D01*
X12795Y144563D02*
Y146531D01*
X25591Y145547D02*
X27559D01*
X26575Y144563D02*
Y146531D01*
X18701Y143701D02*
X20669D01*
X19685Y142717D02*
Y144685D01*
X30634Y150591D02*
X32603D01*
X31618Y149606D02*
Y151575D01*
X30634Y164370D02*
X32603D01*
X31618Y163386D02*
Y165354D01*
X32480Y157480D02*
X34449D01*
X33465Y156496D02*
Y158465D01*
X25591Y169414D02*
X27559D01*
X26575Y168430D02*
Y170398D01*
M02*
