G04 Layer_Color=65535*
%FSLAX25Y25*%
%MOIN*%
G70*
G01*
G75*
%ADD11C,0.00787*%
%ADD19C,0.01000*%
D11*
X279528Y-100394D02*
X350394D01*
X279528Y-120079D02*
X350394D01*
X279528D02*
Y-100394D01*
X350394Y-120079D02*
Y-100394D01*
X200787D02*
X271654D01*
X200787Y-120079D02*
X271654D01*
X200787D02*
Y-100394D01*
X271654Y-120079D02*
Y-100394D01*
X122047D02*
X192913D01*
X122047Y-120079D02*
X192913D01*
X122047D02*
Y-100394D01*
X192913Y-120079D02*
Y-100394D01*
X43307D02*
X114173D01*
X43307Y-120079D02*
X114173D01*
X43307D02*
Y-100394D01*
X114173Y-120079D02*
Y-100394D01*
X279528Y-68898D02*
X350394D01*
X279528Y-88583D02*
X350394D01*
X279528D02*
Y-68898D01*
X350394Y-88583D02*
Y-68898D01*
X200787D02*
X271654D01*
X200787Y-88583D02*
X271654D01*
X200787D02*
Y-68898D01*
X271654Y-88583D02*
Y-68898D01*
X122047D02*
X192913D01*
X122047Y-88583D02*
X192913D01*
X122047D02*
Y-68898D01*
X192913Y-88583D02*
Y-68898D01*
X43307D02*
X114173D01*
X43307Y-88583D02*
X114173D01*
X43307D02*
Y-68898D01*
X114173Y-88583D02*
Y-68898D01*
X279528Y-37402D02*
X350394D01*
X279528Y-57087D02*
X350394D01*
X279528D02*
Y-37402D01*
X350394Y-57087D02*
Y-37402D01*
X200787D02*
X271654D01*
X200787Y-57087D02*
X271654D01*
X200787D02*
Y-37402D01*
X271654Y-57087D02*
Y-37402D01*
X122047D02*
X192913D01*
X122047Y-57087D02*
X192913D01*
X122047D02*
Y-37402D01*
X192913Y-57087D02*
Y-37402D01*
X43307D02*
X114173D01*
X43307Y-57087D02*
X114173D01*
X43307D02*
Y-37402D01*
X114173Y-57087D02*
Y-37402D01*
X279528Y-5906D02*
X350394D01*
X279528Y-25591D02*
X350394D01*
X279528D02*
Y-5906D01*
X350394Y-25591D02*
Y-5906D01*
X200787Y-5906D02*
X271654D01*
X200787Y-25591D02*
X271654D01*
X200787D02*
Y-5906D01*
X271654Y-25591D02*
Y-5906D01*
X122047D02*
X192913D01*
X122047Y-25591D02*
X192913D01*
X122047D02*
Y-5906D01*
X192913Y-25591D02*
Y-5906D01*
X43307Y-5906D02*
X114173D01*
X43307Y-25591D02*
X114173D01*
X43307D02*
Y-5906D01*
X114173Y-25591D02*
Y-5906D01*
X279528Y25591D02*
X350394D01*
X279528Y5906D02*
X350394D01*
X279528D02*
Y25591D01*
X350394Y5906D02*
Y25591D01*
X200787D02*
X271654D01*
X200787Y5906D02*
X271654D01*
X200787D02*
Y25591D01*
X271654Y5906D02*
Y25591D01*
X122047D02*
X192913D01*
X122047Y5906D02*
X192913D01*
X122047D02*
Y25591D01*
X192913Y5906D02*
Y25591D01*
X43307D02*
X114173D01*
X43307Y5906D02*
X114173D01*
X43307D02*
Y25591D01*
X114173Y5906D02*
Y25591D01*
X279528Y57087D02*
X350394D01*
X279528Y37402D02*
X350394D01*
X279528D02*
Y57087D01*
X350394Y37402D02*
Y57087D01*
X200787D02*
X271654D01*
X200787Y37402D02*
X271654D01*
X200787D02*
Y57087D01*
X271654Y37402D02*
Y57087D01*
X122047D02*
X192913D01*
X122047Y37402D02*
X192913D01*
X122047D02*
Y57087D01*
X192913Y37402D02*
Y57087D01*
X43307D02*
X114173D01*
X43307Y37402D02*
X114173D01*
X43307D02*
Y57087D01*
X114173Y37402D02*
Y57087D01*
X279528Y88583D02*
X350394D01*
X279528Y68898D02*
X350394D01*
X279528D02*
Y88583D01*
X350394Y68898D02*
Y88583D01*
X200787D02*
X271654D01*
X200787Y68898D02*
X271654D01*
X200787D02*
Y88583D01*
X271654Y68898D02*
Y88583D01*
X122047D02*
X192913D01*
X122047Y68898D02*
X192913D01*
X122047D02*
Y88583D01*
X192913Y68898D02*
Y88583D01*
X43307D02*
X114173D01*
X43307Y68898D02*
X114173D01*
X43307D02*
Y88583D01*
X114173Y68898D02*
Y88583D01*
X279528Y120079D02*
X350394D01*
X279528Y100394D02*
X350394D01*
X279528D02*
Y120079D01*
X350394Y100394D02*
Y120079D01*
X200787D02*
X271654D01*
X200787Y100394D02*
X271654D01*
X200787D02*
Y120079D01*
X271654Y100394D02*
Y120079D01*
X122047D02*
X192913D01*
X122047Y100394D02*
X192913D01*
X122047D02*
Y120079D01*
X192913Y100394D02*
Y120079D01*
X43307Y120079D02*
X114173D01*
X43307Y100394D02*
X114173D01*
X43307D02*
Y120079D01*
X114173Y100394D02*
Y120079D01*
X0Y-177165D02*
X393701D01*
X0D02*
Y177165D01*
X393701Y-177165D02*
Y177165D01*
X0D02*
X393701D01*
D19*
X125062Y159541D02*
X121063D01*
Y153543D01*
X125062D01*
X121063Y156542D02*
X123062D01*
X127061Y153543D02*
X129060D01*
X128061D01*
Y159541D01*
X127061Y158542D01*
X266794Y-153451D02*
X262795D01*
Y-159449D01*
X266794D01*
X262795Y-156450D02*
X264795D01*
X271792Y-159449D02*
Y-153451D01*
X268793Y-156450D01*
X272792D01*
X266911Y159519D02*
X262912D01*
Y153521D01*
X266911D01*
X262912Y156520D02*
X264911D01*
X272909Y153521D02*
X268910D01*
X272909Y157520D01*
Y158520D01*
X271909Y159519D01*
X269910D01*
X268910Y158520D01*
X124811Y-153481D02*
X120812D01*
Y-159479D01*
X124811D01*
X120812Y-156480D02*
X122811D01*
X126810Y-154480D02*
X127810Y-153481D01*
X129809D01*
X130809Y-154480D01*
Y-155480D01*
X129809Y-156480D01*
X128809D01*
X129809D01*
X130809Y-157479D01*
Y-158479D01*
X129809Y-159479D01*
X127810D01*
X126810Y-158479D01*
X47910Y127450D02*
X46911Y128450D01*
X44912D01*
X43912Y127450D01*
Y123452D01*
X44912Y122452D01*
X46911D01*
X47910Y123452D01*
X49910Y122452D02*
X51909D01*
X50910D01*
Y128450D01*
X49910Y127450D01*
X126614Y127461D02*
X125615Y128461D01*
X123615D01*
X122616Y127461D01*
Y123463D01*
X123615Y122463D01*
X125615D01*
X126614Y123463D01*
X132613Y122463D02*
X128614D01*
X132613Y126462D01*
Y127461D01*
X131613Y128461D01*
X129613D01*
X128614Y127461D01*
X205336D02*
X204337Y128461D01*
X202338D01*
X201338Y127461D01*
Y123463D01*
X202338Y122463D01*
X204337D01*
X205336Y123463D01*
X207336Y127461D02*
X208335Y128461D01*
X210335D01*
X211335Y127461D01*
Y126462D01*
X210335Y125462D01*
X209335D01*
X210335D01*
X211335Y124462D01*
Y123463D01*
X210335Y122463D01*
X208335D01*
X207336Y123463D01*
X284140Y127532D02*
X283141Y128532D01*
X281141D01*
X280142Y127532D01*
Y123534D01*
X281141Y122534D01*
X283141D01*
X284140Y123534D01*
X289139Y122534D02*
Y128532D01*
X286140Y125533D01*
X290139D01*
X47922Y95961D02*
X46922Y96961D01*
X44923D01*
X43923Y95961D01*
Y91963D01*
X44923Y90963D01*
X46922D01*
X47922Y91963D01*
X53920Y96961D02*
X49921D01*
Y93962D01*
X51920Y94962D01*
X52920D01*
X53920Y93962D01*
Y91963D01*
X52920Y90963D01*
X50921D01*
X49921Y91963D01*
X126611Y95976D02*
X125611Y96976D01*
X123611D01*
X122612Y95976D01*
Y91978D01*
X123611Y90978D01*
X125611D01*
X126611Y91978D01*
X132609Y96976D02*
X130609Y95976D01*
X128610Y93977D01*
Y91978D01*
X129610Y90978D01*
X131609D01*
X132609Y91978D01*
Y92977D01*
X131609Y93977D01*
X128610D01*
X205347Y95950D02*
X204348Y96950D01*
X202348D01*
X201349Y95950D01*
Y91952D01*
X202348Y90952D01*
X204348D01*
X205347Y91952D01*
X207347Y96950D02*
X211346D01*
Y95950D01*
X207347Y91952D01*
Y90952D01*
X284085Y96009D02*
X283085Y97009D01*
X281085D01*
X280086Y96009D01*
Y92011D01*
X281085Y91011D01*
X283085D01*
X284085Y92011D01*
X286084Y96009D02*
X287084Y97009D01*
X289083D01*
X290083Y96009D01*
Y95010D01*
X289083Y94010D01*
X290083Y93010D01*
Y92011D01*
X289083Y91011D01*
X287084D01*
X286084Y92011D01*
Y93010D01*
X287084Y94010D01*
X286084Y95010D01*
Y96009D01*
X287084Y94010D02*
X289083D01*
X47922Y64513D02*
X46922Y65513D01*
X44923D01*
X43923Y64513D01*
Y60515D01*
X44923Y59515D01*
X46922D01*
X47922Y60515D01*
X49921D02*
X50921Y59515D01*
X52920D01*
X53920Y60515D01*
Y64513D01*
X52920Y65513D01*
X50921D01*
X49921Y64513D01*
Y63514D01*
X50921Y62514D01*
X53920D01*
X126644Y64509D02*
X125645Y65509D01*
X123645D01*
X122646Y64509D01*
Y60511D01*
X123645Y59511D01*
X125645D01*
X126644Y60511D01*
X128644Y59511D02*
X130643D01*
X129643D01*
Y65509D01*
X128644Y64509D01*
X133642D02*
X134642Y65509D01*
X136641D01*
X137641Y64509D01*
Y60511D01*
X136641Y59511D01*
X134642D01*
X133642Y60511D01*
Y64509D01*
X205377Y64535D02*
X204378Y65535D01*
X202378D01*
X201379Y64535D01*
Y60537D01*
X202378Y59537D01*
X204378D01*
X205377Y60537D01*
X207377Y59537D02*
X209376D01*
X208377D01*
Y65535D01*
X207377Y64535D01*
X212375Y59537D02*
X214374D01*
X213375D01*
Y65535D01*
X212375Y64535D01*
X284088Y64472D02*
X283089Y65472D01*
X281089D01*
X280090Y64472D01*
Y60474D01*
X281089Y59474D01*
X283089D01*
X284088Y60474D01*
X286088Y59474D02*
X288087D01*
X287087D01*
Y65472D01*
X286088Y64472D01*
X295085Y59474D02*
X291086D01*
X295085Y63473D01*
Y64472D01*
X294085Y65472D01*
X292086D01*
X291086Y64472D01*
X47897Y33042D02*
X46898Y34042D01*
X44898D01*
X43898Y33042D01*
Y29044D01*
X44898Y28044D01*
X46898D01*
X47897Y29044D01*
X49896Y28044D02*
X51896D01*
X50896D01*
Y34042D01*
X49896Y33042D01*
X54895D02*
X55895Y34042D01*
X57894D01*
X58894Y33042D01*
Y32043D01*
X57894Y31043D01*
X56894D01*
X57894D01*
X58894Y30044D01*
Y29044D01*
X57894Y28044D01*
X55895D01*
X54895Y29044D01*
X126666Y33042D02*
X125666Y34042D01*
X123667D01*
X122667Y33042D01*
Y29044D01*
X123667Y28044D01*
X125666D01*
X126666Y29044D01*
X128665Y28044D02*
X130664D01*
X129665D01*
Y34042D01*
X128665Y33042D01*
X136662Y28044D02*
Y34042D01*
X133663Y31043D01*
X137662D01*
X205336Y32950D02*
X204337Y33950D01*
X202338D01*
X201338Y32950D01*
Y28952D01*
X202338Y27952D01*
X204337D01*
X205336Y28952D01*
X207336Y27952D02*
X209335D01*
X208335D01*
Y33950D01*
X207336Y32950D01*
X216333Y33950D02*
X212334D01*
Y30951D01*
X214334Y31951D01*
X215333D01*
X216333Y30951D01*
Y28952D01*
X215333Y27952D01*
X213334D01*
X212334Y28952D01*
X284096Y32998D02*
X283096Y33998D01*
X281097D01*
X280097Y32998D01*
Y29000D01*
X281097Y28000D01*
X283096D01*
X284096Y29000D01*
X286095Y28000D02*
X288094D01*
X287095D01*
Y33998D01*
X286095Y32998D01*
X295092Y33998D02*
X293093Y32998D01*
X291093Y30999D01*
Y29000D01*
X292093Y28000D01*
X294092D01*
X295092Y29000D01*
Y29999D01*
X294092Y30999D01*
X291093D01*
X47905Y1510D02*
X46905Y2510D01*
X44906D01*
X43906Y1510D01*
Y-2489D01*
X44906Y-3488D01*
X46905D01*
X47905Y-2489D01*
X49904Y-3488D02*
X51904D01*
X50904D01*
Y2510D01*
X49904Y1510D01*
X54903Y2510D02*
X58901D01*
Y1510D01*
X54903Y-2489D01*
Y-3488D01*
X126642Y1510D02*
X125642Y2510D01*
X123643D01*
X122643Y1510D01*
Y-2489D01*
X123643Y-3488D01*
X125642D01*
X126642Y-2489D01*
X128641Y-3488D02*
X130641D01*
X129641D01*
Y2510D01*
X128641Y1510D01*
X133640D02*
X134639Y2510D01*
X136639D01*
X137638Y1510D01*
Y510D01*
X136639Y-489D01*
X137638Y-1489D01*
Y-2489D01*
X136639Y-3488D01*
X134639D01*
X133640Y-2489D01*
Y-1489D01*
X134639Y-489D01*
X133640Y510D01*
Y1510D01*
X134639Y-489D02*
X136639D01*
X205379Y1510D02*
X204379Y2510D01*
X202380D01*
X201380Y1510D01*
Y-2489D01*
X202380Y-3488D01*
X204379D01*
X205379Y-2489D01*
X207378Y-3488D02*
X209378D01*
X208378D01*
Y2510D01*
X207378Y1510D01*
X212377Y-2489D02*
X213376Y-3488D01*
X215376D01*
X216375Y-2489D01*
Y1510D01*
X215376Y2510D01*
X213376D01*
X212377Y1510D01*
Y510D01*
X213376Y-489D01*
X216375D01*
X284116Y1510D02*
X283116Y2510D01*
X281117D01*
X280117Y1510D01*
Y-2489D01*
X281117Y-3488D01*
X283116D01*
X284116Y-2489D01*
X290114Y-3488D02*
X286115D01*
X290114Y511D01*
Y1510D01*
X289114Y2510D01*
X287115D01*
X286115Y1510D01*
X292113D02*
X293113Y2510D01*
X295112D01*
X296112Y1510D01*
Y-2489D01*
X295112Y-3488D01*
X293113D01*
X292113Y-2489D01*
Y1510D01*
X47905Y-29964D02*
X46905Y-28964D01*
X44906D01*
X43906Y-29964D01*
Y-33963D01*
X44906Y-34962D01*
X46905D01*
X47905Y-33963D01*
X53903Y-34962D02*
X49904D01*
X53903Y-30964D01*
Y-29964D01*
X52903Y-28964D01*
X50904D01*
X49904Y-29964D01*
X55902Y-34962D02*
X57902D01*
X56902D01*
Y-28964D01*
X55902Y-29964D01*
X126642D02*
X125642Y-28964D01*
X123643D01*
X122643Y-29964D01*
Y-33963D01*
X123643Y-34962D01*
X125642D01*
X126642Y-33963D01*
X132640Y-34962D02*
X128641D01*
X132640Y-30964D01*
Y-29964D01*
X131640Y-28964D01*
X129641D01*
X128641Y-29964D01*
X138638Y-34962D02*
X134639D01*
X138638Y-30964D01*
Y-29964D01*
X137638Y-28964D01*
X135639D01*
X134639Y-29964D01*
X205379D02*
X204379Y-28964D01*
X202380D01*
X201380Y-29964D01*
Y-33963D01*
X202380Y-34962D01*
X204379D01*
X205379Y-33963D01*
X211377Y-34962D02*
X207378D01*
X211377Y-30964D01*
Y-29964D01*
X210377Y-28964D01*
X208378D01*
X207378Y-29964D01*
X213376D02*
X214376Y-28964D01*
X216375D01*
X217375Y-29964D01*
Y-30964D01*
X216375Y-31963D01*
X215376D01*
X216375D01*
X217375Y-32963D01*
Y-33963D01*
X216375Y-34962D01*
X214376D01*
X213376Y-33963D01*
X284116Y-29964D02*
X283116Y-28964D01*
X281117D01*
X280117Y-29964D01*
Y-33963D01*
X281117Y-34962D01*
X283116D01*
X284116Y-33963D01*
X290114Y-34962D02*
X286115D01*
X290114Y-30964D01*
Y-29964D01*
X289114Y-28964D01*
X287115D01*
X286115Y-29964D01*
X295112Y-34962D02*
Y-28964D01*
X292113Y-31963D01*
X296112D01*
X47905Y-61538D02*
X46905Y-60538D01*
X44906D01*
X43906Y-61538D01*
Y-65536D01*
X44906Y-66536D01*
X46905D01*
X47905Y-65536D01*
X53903Y-66536D02*
X49904D01*
X53903Y-62537D01*
Y-61538D01*
X52903Y-60538D01*
X50904D01*
X49904Y-61538D01*
X59901Y-60538D02*
X55902D01*
Y-63537D01*
X57902Y-62537D01*
X58901D01*
X59901Y-63537D01*
Y-65536D01*
X58901Y-66536D01*
X56902D01*
X55902Y-65536D01*
X126642Y-61538D02*
X125642Y-60538D01*
X123643D01*
X122643Y-61538D01*
Y-65536D01*
X123643Y-66536D01*
X125642D01*
X126642Y-65536D01*
X132640Y-66536D02*
X128641D01*
X132640Y-62537D01*
Y-61538D01*
X131640Y-60538D01*
X129641D01*
X128641Y-61538D01*
X138638Y-60538D02*
X136639Y-61538D01*
X134639Y-63537D01*
Y-65536D01*
X135639Y-66536D01*
X137638D01*
X138638Y-65536D01*
Y-64537D01*
X137638Y-63537D01*
X134639D01*
X205379Y-61538D02*
X204379Y-60538D01*
X202380D01*
X201380Y-61538D01*
Y-65536D01*
X202380Y-66536D01*
X204379D01*
X205379Y-65536D01*
X211377Y-66536D02*
X207378D01*
X211377Y-62537D01*
Y-61538D01*
X210377Y-60538D01*
X208378D01*
X207378Y-61538D01*
X213376Y-60538D02*
X217375D01*
Y-61538D01*
X213376Y-65536D01*
Y-66536D01*
X284116Y-61538D02*
X283116Y-60538D01*
X281117D01*
X280117Y-61538D01*
Y-65536D01*
X281117Y-66536D01*
X283116D01*
X284116Y-65536D01*
X290114Y-66536D02*
X286115D01*
X290114Y-62537D01*
Y-61538D01*
X289114Y-60538D01*
X287115D01*
X286115Y-61538D01*
X292113D02*
X293113Y-60538D01*
X295112D01*
X296112Y-61538D01*
Y-62537D01*
X295112Y-63537D01*
X296112Y-64537D01*
Y-65536D01*
X295112Y-66536D01*
X293113D01*
X292113Y-65536D01*
Y-64537D01*
X293113Y-63537D01*
X292113Y-62537D01*
Y-61538D01*
X293113Y-63537D02*
X295112D01*
X47905Y-93012D02*
X46905Y-92012D01*
X44906D01*
X43906Y-93012D01*
Y-97011D01*
X44906Y-98010D01*
X46905D01*
X47905Y-97011D01*
X53903Y-98010D02*
X49904D01*
X53903Y-94011D01*
Y-93012D01*
X52903Y-92012D01*
X50904D01*
X49904Y-93012D01*
X55902Y-97011D02*
X56902Y-98010D01*
X58901D01*
X59901Y-97011D01*
Y-93012D01*
X58901Y-92012D01*
X56902D01*
X55902Y-93012D01*
Y-94011D01*
X56902Y-95011D01*
X59901D01*
X126642Y-93012D02*
X125642Y-92012D01*
X123643D01*
X122643Y-93012D01*
Y-97011D01*
X123643Y-98010D01*
X125642D01*
X126642Y-97011D01*
X128641Y-93012D02*
X129641Y-92012D01*
X131640D01*
X132640Y-93012D01*
Y-94011D01*
X131640Y-95011D01*
X130641D01*
X131640D01*
X132640Y-96011D01*
Y-97011D01*
X131640Y-98010D01*
X129641D01*
X128641Y-97011D01*
X134639Y-93012D02*
X135639Y-92012D01*
X137638D01*
X138638Y-93012D01*
Y-97011D01*
X137638Y-98010D01*
X135639D01*
X134639Y-97011D01*
Y-93012D01*
X205379D02*
X204379Y-92012D01*
X202380D01*
X201380Y-93012D01*
Y-97011D01*
X202380Y-98010D01*
X204379D01*
X205379Y-97011D01*
X207378Y-93012D02*
X208378Y-92012D01*
X210377D01*
X211377Y-93012D01*
Y-94011D01*
X210377Y-95011D01*
X209378D01*
X210377D01*
X211377Y-96011D01*
Y-97011D01*
X210377Y-98010D01*
X208378D01*
X207378Y-97011D01*
X213376Y-98010D02*
X215376D01*
X214376D01*
Y-92012D01*
X213376Y-93012D01*
X284116D02*
X283116Y-92012D01*
X281117D01*
X280117Y-93012D01*
Y-97011D01*
X281117Y-98010D01*
X283116D01*
X284116Y-97011D01*
X286115Y-93012D02*
X287115Y-92012D01*
X289114D01*
X290114Y-93012D01*
Y-94011D01*
X289114Y-95011D01*
X288115D01*
X289114D01*
X290114Y-96011D01*
Y-97011D01*
X289114Y-98010D01*
X287115D01*
X286115Y-97011D01*
X296112Y-98010D02*
X292113D01*
X296112Y-94011D01*
Y-93012D01*
X295112Y-92012D01*
X293113D01*
X292113Y-93012D01*
M02*
