G04 Layer_Color=128*
%FSLAX25Y25*%
%MOIN*%
G70*
G01*
G75*
%ADD11C,0.00787*%
%ADD17R,0.03543X0.05315*%
D11*
X0Y-177165D02*
X393701D01*
X0D02*
Y177165D01*
X393701Y-177165D02*
Y177165D01*
X0D02*
X393701D01*
D17*
X76476Y110236D02*
D03*
X67224D02*
D03*
X90256D02*
D03*
X81004D02*
D03*
X155217D02*
D03*
X145965D02*
D03*
X168996D02*
D03*
X159744D02*
D03*
X233957D02*
D03*
X224705D02*
D03*
X247736D02*
D03*
X238484D02*
D03*
X312697D02*
D03*
X303445D02*
D03*
X326476D02*
D03*
X317224D02*
D03*
X76476Y78740D02*
D03*
X67224D02*
D03*
X90256D02*
D03*
X81004D02*
D03*
X155217D02*
D03*
X145965D02*
D03*
X168996D02*
D03*
X159744D02*
D03*
X233957D02*
D03*
X224705D02*
D03*
X247736D02*
D03*
X238484D02*
D03*
X312697D02*
D03*
X303445D02*
D03*
X326476D02*
D03*
X317224D02*
D03*
X76476Y47244D02*
D03*
X67224D02*
D03*
X90256D02*
D03*
X81004D02*
D03*
X155217D02*
D03*
X145965D02*
D03*
X168996D02*
D03*
X159744D02*
D03*
X233957D02*
D03*
X224705D02*
D03*
X247736D02*
D03*
X238484D02*
D03*
X312697D02*
D03*
X303445D02*
D03*
X326476D02*
D03*
X317224D02*
D03*
X76476Y15748D02*
D03*
X67224D02*
D03*
X90256D02*
D03*
X81004D02*
D03*
X155217D02*
D03*
X145965D02*
D03*
X168996D02*
D03*
X159744D02*
D03*
X233957D02*
D03*
X224705D02*
D03*
X247736D02*
D03*
X238484D02*
D03*
X312697D02*
D03*
X303445D02*
D03*
X326476D02*
D03*
X317224D02*
D03*
X76476Y-15748D02*
D03*
X67224D02*
D03*
X90256D02*
D03*
X81004D02*
D03*
X155217D02*
D03*
X145965D02*
D03*
X168996D02*
D03*
X159744D02*
D03*
X233957D02*
D03*
X224705D02*
D03*
X247736D02*
D03*
X238484D02*
D03*
X312697D02*
D03*
X303445D02*
D03*
X326772D02*
D03*
X317520D02*
D03*
X76476Y-47244D02*
D03*
X67224D02*
D03*
X90256D02*
D03*
X81004D02*
D03*
X155217D02*
D03*
X145965D02*
D03*
X168996D02*
D03*
X159744D02*
D03*
X233957D02*
D03*
X224705D02*
D03*
X247736D02*
D03*
X238484D02*
D03*
X312697D02*
D03*
X303445D02*
D03*
X326476D02*
D03*
X317224D02*
D03*
X76476Y-78740D02*
D03*
X67224D02*
D03*
X90256D02*
D03*
X81004D02*
D03*
X155217D02*
D03*
X145965D02*
D03*
X168996D02*
D03*
X159744D02*
D03*
X233957D02*
D03*
X224705D02*
D03*
X247736D02*
D03*
X238484D02*
D03*
X312697D02*
D03*
X303445D02*
D03*
X326476D02*
D03*
X317224D02*
D03*
X76476Y-110236D02*
D03*
X67224D02*
D03*
X90256D02*
D03*
X81004D02*
D03*
X155217D02*
D03*
X145965D02*
D03*
X168996D02*
D03*
X159744D02*
D03*
X233957D02*
D03*
X224705D02*
D03*
X247736D02*
D03*
X238484D02*
D03*
X312697D02*
D03*
X303445D02*
D03*
X326476D02*
D03*
X317224D02*
D03*
M02*
