G04 Layer_Color=16711935*
%FSLAX25Y25*%
%MOIN*%
G70*
G01*
G75*
%ADD11C,0.00787*%
%ADD26C,0.00394*%
D11*
X80709Y138779D02*
X116142D01*
Y174213D01*
X80709D02*
X116142D01*
X80709Y138779D02*
Y174213D01*
X277559Y-138779D02*
X312992D01*
X277559Y-174213D02*
Y-138779D01*
Y-174213D02*
X312992D01*
Y-138779D01*
X277559Y138779D02*
X312992D01*
Y174213D01*
X277559D02*
X312992D01*
X277559Y138779D02*
Y174213D01*
X80709Y-138779D02*
X116142D01*
X80709Y-174213D02*
Y-138779D01*
Y-174213D02*
X116142D01*
Y-138779D01*
X0Y-177165D02*
X393701D01*
X0D02*
Y177165D01*
X393701Y-177165D02*
Y177165D01*
X0D02*
X393701D01*
D26*
X67618Y112894D02*
X76083D01*
X67618Y107579D02*
X76083D01*
Y112894D01*
X67618Y107579D02*
Y112894D01*
X81398D02*
X89862D01*
X81398Y107579D02*
X89862D01*
Y112894D01*
X81398Y107579D02*
Y112894D01*
X146358D02*
X154823D01*
X146358Y107579D02*
X154823D01*
Y112894D01*
X146358Y107579D02*
Y112894D01*
X160138D02*
X168602D01*
X160138Y107579D02*
X168602D01*
Y112894D01*
X160138Y107579D02*
Y112894D01*
X225098D02*
X233563D01*
X225098Y107579D02*
X233563D01*
Y112894D01*
X225098Y107579D02*
Y112894D01*
X238878D02*
X247342D01*
X238878Y107579D02*
X247342D01*
Y112894D01*
X238878Y107579D02*
Y112894D01*
X303839D02*
X312303D01*
X303839Y107579D02*
X312303D01*
Y112894D01*
X303839Y107579D02*
Y112894D01*
X317618D02*
X326083D01*
X317618Y107579D02*
X326083D01*
Y112894D01*
X317618Y107579D02*
Y112894D01*
X67618Y81398D02*
X76083D01*
X67618Y76083D02*
X76083D01*
Y81398D01*
X67618Y76083D02*
Y81398D01*
X81398D02*
X89862D01*
X81398Y76083D02*
X89862D01*
Y81398D01*
X81398Y76083D02*
Y81398D01*
X146358D02*
X154823D01*
X146358Y76083D02*
X154823D01*
Y81398D01*
X146358Y76083D02*
Y81398D01*
X160138D02*
X168602D01*
X160138Y76083D02*
X168602D01*
Y81398D01*
X160138Y76083D02*
Y81398D01*
X225098D02*
X233563D01*
X225098Y76083D02*
X233563D01*
Y81398D01*
X225098Y76083D02*
Y81398D01*
X238878D02*
X247342D01*
X238878Y76083D02*
X247342D01*
Y81398D01*
X238878Y76083D02*
Y81398D01*
X303839D02*
X312303D01*
X303839Y76083D02*
X312303D01*
Y81398D01*
X303839Y76083D02*
Y81398D01*
X317618D02*
X326083D01*
X317618Y76083D02*
X326083D01*
Y81398D01*
X317618Y76083D02*
Y81398D01*
X67618Y49902D02*
X76083D01*
X67618Y44587D02*
X76083D01*
Y49902D01*
X67618Y44587D02*
Y49902D01*
X81398D02*
X89862D01*
X81398Y44587D02*
X89862D01*
Y49902D01*
X81398Y44587D02*
Y49902D01*
X146358D02*
X154823D01*
X146358Y44587D02*
X154823D01*
Y49902D01*
X146358Y44587D02*
Y49902D01*
X160138D02*
X168602D01*
X160138Y44587D02*
X168602D01*
Y49902D01*
X160138Y44587D02*
Y49902D01*
X225098D02*
X233563D01*
X225098Y44587D02*
X233563D01*
Y49902D01*
X225098Y44587D02*
Y49902D01*
X238878D02*
X247342D01*
X238878Y44587D02*
X247342D01*
Y49902D01*
X238878Y44587D02*
Y49902D01*
X303839D02*
X312303D01*
X303839Y44587D02*
X312303D01*
Y49902D01*
X303839Y44587D02*
Y49902D01*
X317618D02*
X326083D01*
X317618Y44587D02*
X326083D01*
Y49902D01*
X317618Y44587D02*
Y49902D01*
X67618Y18406D02*
X76083D01*
X67618Y13091D02*
X76083D01*
Y18406D01*
X67618Y13091D02*
Y18406D01*
X81398D02*
X89862D01*
X81398Y13091D02*
X89862D01*
Y18406D01*
X81398Y13091D02*
Y18406D01*
X146358D02*
X154823D01*
X146358Y13091D02*
X154823D01*
Y18406D01*
X146358Y13091D02*
Y18406D01*
X160138D02*
X168602D01*
X160138Y13091D02*
X168602D01*
Y18406D01*
X160138Y13091D02*
Y18406D01*
X225098D02*
X233563D01*
X225098Y13091D02*
X233563D01*
Y18406D01*
X225098Y13091D02*
Y18406D01*
X238878D02*
X247342D01*
X238878Y13091D02*
X247342D01*
Y18406D01*
X238878Y13091D02*
Y18406D01*
X303839D02*
X312303D01*
X303839Y13091D02*
X312303D01*
Y18406D01*
X303839Y13091D02*
Y18406D01*
X317618D02*
X326083D01*
X317618Y13091D02*
X326083D01*
Y18406D01*
X317618Y13091D02*
Y18406D01*
X67618Y-13091D02*
X76083D01*
X67618Y-18406D02*
X76083D01*
Y-13091D01*
X67618Y-18406D02*
Y-13091D01*
X81398D02*
X89862D01*
X81398Y-18406D02*
X89862D01*
Y-13091D01*
X81398Y-18406D02*
Y-13091D01*
X146358D02*
X154823D01*
X146358Y-18406D02*
X154823D01*
Y-13091D01*
X146358Y-18406D02*
Y-13091D01*
X160138D02*
X168602D01*
X160138Y-18406D02*
X168602D01*
Y-13091D01*
X160138Y-18406D02*
Y-13091D01*
X225098D02*
X233563D01*
X225098Y-18406D02*
X233563D01*
Y-13091D01*
X225098Y-18406D02*
Y-13091D01*
X238878D02*
X247342D01*
X238878Y-18406D02*
X247342D01*
Y-13091D01*
X238878Y-18406D02*
Y-13091D01*
X303839D02*
X312303D01*
X303839Y-18406D02*
X312303D01*
Y-13091D01*
X303839Y-18406D02*
Y-13091D01*
X317913D02*
X326378D01*
X317913Y-18406D02*
X326378D01*
Y-13091D01*
X317913Y-18406D02*
Y-13091D01*
X67618Y-44587D02*
X76083D01*
X67618Y-49902D02*
X76083D01*
Y-44587D01*
X67618Y-49902D02*
Y-44587D01*
X81398D02*
X89862D01*
X81398Y-49902D02*
X89862D01*
Y-44587D01*
X81398Y-49902D02*
Y-44587D01*
X146358D02*
X154823D01*
X146358Y-49902D02*
X154823D01*
Y-44587D01*
X146358Y-49902D02*
Y-44587D01*
X160138D02*
X168602D01*
X160138Y-49902D02*
X168602D01*
Y-44587D01*
X160138Y-49902D02*
Y-44587D01*
X225098D02*
X233563D01*
X225098Y-49902D02*
X233563D01*
Y-44587D01*
X225098Y-49902D02*
Y-44587D01*
X238878D02*
X247342D01*
X238878Y-49902D02*
X247342D01*
Y-44587D01*
X238878Y-49902D02*
Y-44587D01*
X303839D02*
X312303D01*
X303839Y-49902D02*
X312303D01*
Y-44587D01*
X303839Y-49902D02*
Y-44587D01*
X317618D02*
X326083D01*
X317618Y-49902D02*
X326083D01*
Y-44587D01*
X317618Y-49902D02*
Y-44587D01*
X67618Y-76083D02*
X76083D01*
X67618Y-81398D02*
X76083D01*
Y-76083D01*
X67618Y-81398D02*
Y-76083D01*
X81398D02*
X89862D01*
X81398Y-81398D02*
X89862D01*
Y-76083D01*
X81398Y-81398D02*
Y-76083D01*
X146358D02*
X154823D01*
X146358Y-81398D02*
X154823D01*
Y-76083D01*
X146358Y-81398D02*
Y-76083D01*
X160138D02*
X168602D01*
X160138Y-81398D02*
X168602D01*
Y-76083D01*
X160138Y-81398D02*
Y-76083D01*
X225098D02*
X233563D01*
X225098Y-81398D02*
X233563D01*
Y-76083D01*
X225098Y-81398D02*
Y-76083D01*
X238878D02*
X247342D01*
X238878Y-81398D02*
X247342D01*
Y-76083D01*
X238878Y-81398D02*
Y-76083D01*
X303839D02*
X312303D01*
X303839Y-81398D02*
X312303D01*
Y-76083D01*
X303839Y-81398D02*
Y-76083D01*
X317618D02*
X326083D01*
X317618Y-81398D02*
X326083D01*
Y-76083D01*
X317618Y-81398D02*
Y-76083D01*
X67618Y-107579D02*
X76083D01*
X67618Y-112894D02*
X76083D01*
Y-107579D01*
X67618Y-112894D02*
Y-107579D01*
X81398D02*
X89862D01*
X81398Y-112894D02*
X89862D01*
Y-107579D01*
X81398Y-112894D02*
Y-107579D01*
X146358D02*
X154823D01*
X146358Y-112894D02*
X154823D01*
Y-107579D01*
X146358Y-112894D02*
Y-107579D01*
X160138D02*
X168602D01*
X160138Y-112894D02*
X168602D01*
Y-107579D01*
X160138Y-112894D02*
Y-107579D01*
X225098D02*
X233563D01*
X225098Y-112894D02*
X233563D01*
Y-107579D01*
X225098Y-112894D02*
Y-107579D01*
X238878D02*
X247342D01*
X238878Y-112894D02*
X247342D01*
Y-107579D01*
X238878Y-112894D02*
Y-107579D01*
X303839D02*
X312303D01*
X303839Y-112894D02*
X312303D01*
Y-107579D01*
X303839Y-112894D02*
Y-107579D01*
X317618D02*
X326083D01*
X317618Y-112894D02*
X326083D01*
Y-107579D01*
X317618Y-112894D02*
Y-107579D01*
M02*
