G04 Layer_Color=16711935*
%FSLAX25Y25*%
%MOIN*%
G70*
G01*
G75*
%ADD11C,0.00787*%
%ADD20C,0.12611*%
%ADD21C,0.08674*%
%ADD22C,0.18516*%
%ADD23C,0.34265*%
%ADD24C,0.04737*%
%ADD25R,0.04343X0.06115*%
D11*
X0Y-177165D02*
X393701D01*
X0D02*
Y177165D01*
X393701Y-177165D02*
Y177165D01*
X0D02*
X393701D01*
D20*
X285433Y-110236D02*
D03*
X344488D02*
D03*
X206693D02*
D03*
X265748D02*
D03*
X127953D02*
D03*
X187008D02*
D03*
X49213D02*
D03*
X108268D02*
D03*
X285433Y-78740D02*
D03*
X344488D02*
D03*
X206693D02*
D03*
X265748D02*
D03*
X127953D02*
D03*
X187008D02*
D03*
X49213D02*
D03*
X108268D02*
D03*
X285433Y-47244D02*
D03*
X344488D02*
D03*
X206693D02*
D03*
X265748D02*
D03*
X127953D02*
D03*
X187008D02*
D03*
X49213D02*
D03*
X108268D02*
D03*
X285433Y-15748D02*
D03*
X344488D02*
D03*
X206693Y-15748D02*
D03*
X265748D02*
D03*
X127953D02*
D03*
X187008D02*
D03*
X49213Y-15748D02*
D03*
X108268D02*
D03*
X285433Y15748D02*
D03*
X344488D02*
D03*
X206693D02*
D03*
X265748D02*
D03*
X127953D02*
D03*
X187008D02*
D03*
X49213D02*
D03*
X108268D02*
D03*
X285433Y47244D02*
D03*
X344488D02*
D03*
X206693D02*
D03*
X265748D02*
D03*
X127953D02*
D03*
X187008D02*
D03*
X49213D02*
D03*
X108268D02*
D03*
X285433Y78740D02*
D03*
X344488D02*
D03*
X206693D02*
D03*
X265748D02*
D03*
X127953D02*
D03*
X187008D02*
D03*
X49213D02*
D03*
X108268D02*
D03*
X285433Y110236D02*
D03*
X344488D02*
D03*
X206693D02*
D03*
X265748D02*
D03*
X127953D02*
D03*
X187008D02*
D03*
X49213Y110236D02*
D03*
X108268D02*
D03*
D21*
X83425Y171496D02*
D03*
X103425D02*
D03*
X93425D02*
D03*
X113425Y161496D02*
D03*
Y171496D02*
D03*
Y151496D02*
D03*
X103425Y141496D02*
D03*
X113425D02*
D03*
X93425D02*
D03*
X83425D02*
D03*
Y151496D02*
D03*
Y161496D02*
D03*
X93425Y151496D02*
D03*
Y161496D02*
D03*
X103425Y151496D02*
D03*
Y161496D02*
D03*
X310276Y-171496D02*
D03*
X290276D02*
D03*
X300276D02*
D03*
X280276Y-161496D02*
D03*
Y-171496D02*
D03*
Y-151496D02*
D03*
X290276Y-141496D02*
D03*
X280276D02*
D03*
X300276D02*
D03*
X310276D02*
D03*
Y-151496D02*
D03*
Y-161496D02*
D03*
X300276Y-151496D02*
D03*
Y-161496D02*
D03*
X290276Y-151496D02*
D03*
Y-161496D02*
D03*
X280276Y171496D02*
D03*
X300276D02*
D03*
X290276D02*
D03*
X310276Y161496D02*
D03*
Y171496D02*
D03*
Y151496D02*
D03*
X300276Y141496D02*
D03*
X310276D02*
D03*
X290276D02*
D03*
X280276D02*
D03*
Y151496D02*
D03*
Y161496D02*
D03*
X290276Y151496D02*
D03*
Y161496D02*
D03*
X300276Y151496D02*
D03*
Y161496D02*
D03*
X113425Y-171496D02*
D03*
X93425D02*
D03*
X103425D02*
D03*
X83425Y-161496D02*
D03*
Y-171496D02*
D03*
Y-151496D02*
D03*
X93425Y-141496D02*
D03*
X83425D02*
D03*
X103425D02*
D03*
X113425D02*
D03*
Y-151496D02*
D03*
Y-161496D02*
D03*
X103425Y-151496D02*
D03*
Y-161496D02*
D03*
X93425Y-151496D02*
D03*
Y-161496D02*
D03*
D22*
X334646Y-157480D02*
D03*
D23*
X59055Y157480D02*
D03*
Y-157480D02*
D03*
X19685D02*
D03*
Y157480D02*
D03*
X334646D02*
D03*
X374016D02*
D03*
Y-157480D02*
D03*
D24*
X7752Y-150591D02*
D03*
X19685Y-143701D02*
D03*
X12795Y-145547D02*
D03*
X7752Y-164370D02*
D03*
X5906Y-157480D02*
D03*
X12795Y-169414D02*
D03*
X26575D02*
D03*
X19685Y-171260D02*
D03*
X31618Y-164370D02*
D03*
Y-150591D02*
D03*
X33465Y-157480D02*
D03*
X26575Y-145547D02*
D03*
X47122Y-150591D02*
D03*
X59055Y-143701D02*
D03*
X52165Y-145547D02*
D03*
X47122Y-164370D02*
D03*
X45276Y-157480D02*
D03*
X52165Y-169414D02*
D03*
X65945D02*
D03*
X59055Y-171260D02*
D03*
X70989Y-164370D02*
D03*
Y-150591D02*
D03*
X72835Y-157480D02*
D03*
X65945Y-145547D02*
D03*
X362082Y-150591D02*
D03*
X374016Y-143701D02*
D03*
X367126Y-145547D02*
D03*
X362082Y-164370D02*
D03*
X360236Y-157480D02*
D03*
X367126Y-169414D02*
D03*
X380906D02*
D03*
X374016Y-171260D02*
D03*
X385949Y-164370D02*
D03*
Y-150591D02*
D03*
X387795Y-157480D02*
D03*
X380906Y-145547D02*
D03*
X362082Y164370D02*
D03*
X374016Y171260D02*
D03*
X367126Y169414D02*
D03*
X362082Y150591D02*
D03*
X360236Y157480D02*
D03*
X367126Y145547D02*
D03*
X380906D02*
D03*
X374016Y143701D02*
D03*
X385949Y150591D02*
D03*
Y164370D02*
D03*
X387795Y157480D02*
D03*
X380906Y169414D02*
D03*
X322712Y164370D02*
D03*
X334646Y171260D02*
D03*
X327756Y169414D02*
D03*
X322712Y150591D02*
D03*
X320866Y157480D02*
D03*
X327756Y145547D02*
D03*
X341535D02*
D03*
X334646Y143701D02*
D03*
X346579Y150591D02*
D03*
Y164370D02*
D03*
X348425Y157480D02*
D03*
X341535Y169414D02*
D03*
X47122Y164370D02*
D03*
X59055Y171260D02*
D03*
X52165Y169414D02*
D03*
X47122Y150591D02*
D03*
X45276Y157480D02*
D03*
X52165Y145547D02*
D03*
X65945D02*
D03*
X59055Y143701D02*
D03*
X70989Y150591D02*
D03*
Y164370D02*
D03*
X72835Y157480D02*
D03*
X65945Y169414D02*
D03*
X7752Y164370D02*
D03*
X19685Y171260D02*
D03*
X12795Y169414D02*
D03*
X7752Y150591D02*
D03*
X5906Y157480D02*
D03*
X12795Y145547D02*
D03*
X26575D02*
D03*
X19685Y143701D02*
D03*
X31618Y150591D02*
D03*
Y164370D02*
D03*
X33465Y157480D02*
D03*
X26575Y169414D02*
D03*
D25*
X76476Y110236D02*
D03*
X67224D02*
D03*
X90256D02*
D03*
X81004D02*
D03*
X155217D02*
D03*
X145965D02*
D03*
X168996D02*
D03*
X159744D02*
D03*
X233957D02*
D03*
X224705D02*
D03*
X247736D02*
D03*
X238484D02*
D03*
X312697D02*
D03*
X303445D02*
D03*
X326476D02*
D03*
X317224D02*
D03*
X76476Y78740D02*
D03*
X67224D02*
D03*
X90256D02*
D03*
X81004D02*
D03*
X155217D02*
D03*
X145965D02*
D03*
X168996D02*
D03*
X159744D02*
D03*
X233957D02*
D03*
X224705D02*
D03*
X247736D02*
D03*
X238484D02*
D03*
X312697D02*
D03*
X303445D02*
D03*
X326476D02*
D03*
X317224D02*
D03*
X76476Y47244D02*
D03*
X67224D02*
D03*
X90256D02*
D03*
X81004D02*
D03*
X155217D02*
D03*
X145965D02*
D03*
X168996D02*
D03*
X159744D02*
D03*
X233957D02*
D03*
X224705D02*
D03*
X247736D02*
D03*
X238484D02*
D03*
X312697D02*
D03*
X303445D02*
D03*
X326476D02*
D03*
X317224D02*
D03*
X76476Y15748D02*
D03*
X67224D02*
D03*
X90256D02*
D03*
X81004D02*
D03*
X155217D02*
D03*
X145965D02*
D03*
X168996D02*
D03*
X159744D02*
D03*
X233957D02*
D03*
X224705D02*
D03*
X247736D02*
D03*
X238484D02*
D03*
X312697D02*
D03*
X303445D02*
D03*
X326476D02*
D03*
X317224D02*
D03*
X76476Y-15748D02*
D03*
X67224D02*
D03*
X90256D02*
D03*
X81004D02*
D03*
X155217D02*
D03*
X145965D02*
D03*
X168996D02*
D03*
X159744D02*
D03*
X233957D02*
D03*
X224705D02*
D03*
X247736D02*
D03*
X238484D02*
D03*
X312697D02*
D03*
X303445D02*
D03*
X326772D02*
D03*
X317520D02*
D03*
X76476Y-47244D02*
D03*
X67224D02*
D03*
X90256D02*
D03*
X81004D02*
D03*
X155217D02*
D03*
X145965D02*
D03*
X168996D02*
D03*
X159744D02*
D03*
X233957D02*
D03*
X224705D02*
D03*
X247736D02*
D03*
X238484D02*
D03*
X312697D02*
D03*
X303445D02*
D03*
X326476D02*
D03*
X317224D02*
D03*
X76476Y-78740D02*
D03*
X67224D02*
D03*
X90256D02*
D03*
X81004D02*
D03*
X155217D02*
D03*
X145965D02*
D03*
X168996D02*
D03*
X159744D02*
D03*
X233957D02*
D03*
X224705D02*
D03*
X247736D02*
D03*
X238484D02*
D03*
X312697D02*
D03*
X303445D02*
D03*
X326476D02*
D03*
X317224D02*
D03*
X76476Y-110236D02*
D03*
X67224D02*
D03*
X90256D02*
D03*
X81004D02*
D03*
X155217D02*
D03*
X145965D02*
D03*
X168996D02*
D03*
X159744D02*
D03*
X233957D02*
D03*
X224705D02*
D03*
X247736D02*
D03*
X238484D02*
D03*
X312697D02*
D03*
X303445D02*
D03*
X326476D02*
D03*
X317224D02*
D03*
M02*
