M48
;Layer_Color=9474304
;FILE_FORMAT=2:5
INCH,TZ
;TYPE=PLATED
T1F00S00C0.01968
T2F00S00C0.03937
T3F00S00C0.05709
T4F00S00C0.17717
%
T01
X7752Y-164370
X5906Y-157480
X12795Y-169414
X19685Y-171260
X26575Y-169414
X31618Y-164370
X33465Y-157480
X45276
X47122Y-164370
X52165Y-169414
X59055Y-171260
X65945Y-169414
X70989Y-164370
X72835Y-157480
X360236
X362082Y-164370
X367126Y-169414
X374016Y-171260
X380906Y-169414
X385949Y-164370
X387795Y-157480
X385949Y-150591
X380906Y-145547
X374016Y-143701
X367126Y-145547
X362082Y-150591
X70989
X65945Y-145547
X59055Y-143701
X52165Y-145547
X47122Y-150591
X31618
X26575Y-145547
X19685Y-143701
X12795Y-145547
X7752Y-150591
Y150591
X5906Y157480
X12795Y145547
X19685Y143701
X26575Y145547
X31618Y150591
X33465Y157480
X45276
X47122Y150591
X52165Y145547
X59055Y143701
X65945Y145547
X70989Y150591
X72835Y157480
X320866
X322712Y150591
X327756Y145547
X334646Y143701
X341535Y145547
X346579Y150591
X348425Y157480
X360236
X362082Y150591
X367126Y145547
X374016Y143701
X380906Y145547
X385949Y150591
X387795Y157480
X385949Y164370
X380906Y169414
X374016Y171260
X367126Y169414
X362082Y164370
X346579
X341535Y169414
X334646Y171260
X327756Y169414
X322712Y164370
X70989
X65945Y169414
X59055Y171260
X52165Y169414
X47122Y164370
X31618
X26575Y169414
X19685Y171260
X12795Y169414
X7752Y164370
T02
X285433Y-110236
Y-78740
Y-47244
Y-15748
X344488
Y-47244
Y-78740
Y-110236
X265748
Y-78740
Y-47244
Y-15748
X206693
X187008
Y-47244
X206693
Y-78740
X187008
Y-110236
X206693
X127953
Y-78740
Y-47244
Y-15748
X108268Y-15748
X108268Y-47244
Y-78740
Y-110236
X49213
Y-78740
Y-47244
X49213Y-15748
X49213Y15748
Y47244
Y78740
Y110236
X108268
Y78740
Y47244
Y15748
X127953
Y47244
Y78740
Y110236
X187008
X206693
Y78740
X187008
Y47244
X206693
Y15748
X187008
X265748
Y47244
Y78740
Y110236
X285433
Y78740
Y47244
Y15748
X344488
Y47244
Y78740
Y110236
T03
X83425Y-171496
X93425
X103425
X113425
Y-161496
Y-151496
X103425
Y-161496
X93425
X83425
Y-151496
X93425
X280276
Y-161496
Y-171496
X290276
X300276
X310276
Y-161496
Y-151496
X300276
Y-161496
X290276
Y-151496
Y-141496
X300276
X310276
X280276
X113425
X103425
X93425
X83425
Y141496
X93425
X103425
X113425
Y151496
X103425
X93425
X83425
X280276
Y141496
X290276
X300276
X310276
Y151496
X300276
X290276
Y161496
Y171496
X300276
X310276
Y161496
X300276
X280276
Y171496
X113425
X103425
X93425
X83425
Y161496
X93425
X103425
X113425
T04
X19685Y-157480
X59055
X334646
X374016
X59055Y157480
X19685
X334646
X374016
M30
