G04 Layer_Color=2752767*
%FSLAX25Y25*%
%MOIN*%
G70*
G01*
G75*
%ADD11C,0.00787*%
%ADD28C,0.00200*%
%ADD29C,0.00267*%
D11*
X0Y-177165D02*
X393701D01*
X0D02*
Y177165D01*
X393701Y-177165D02*
Y177165D01*
X0D02*
X393701D01*
D28*
X284633Y-111036D02*
Y-109436D01*
X286233D01*
Y-111036D01*
X284633D01*
X343688D02*
Y-109436D01*
X345288D01*
Y-111036D01*
X343688D01*
X205893D02*
Y-109436D01*
X207493D01*
Y-111036D01*
X205893D01*
X264948D02*
Y-109436D01*
X266548D01*
Y-111036D01*
X264948D01*
X127153D02*
Y-109436D01*
X128753D01*
Y-111036D01*
X127153D01*
X186208D02*
Y-109436D01*
X187808D01*
Y-111036D01*
X186208D01*
X48413D02*
Y-109436D01*
X50013D01*
Y-111036D01*
X48413D01*
X107468D02*
Y-109436D01*
X109068D01*
Y-111036D01*
X107468D01*
X284633Y-79540D02*
Y-77940D01*
X286233D01*
Y-79540D01*
X284633D01*
X343688D02*
Y-77940D01*
X345288D01*
Y-79540D01*
X343688D01*
X205893D02*
Y-77940D01*
X207493D01*
Y-79540D01*
X205893D01*
X264948D02*
Y-77940D01*
X266548D01*
Y-79540D01*
X264948D01*
X127153D02*
Y-77940D01*
X128753D01*
Y-79540D01*
X127153D01*
X186208D02*
Y-77940D01*
X187808D01*
Y-79540D01*
X186208D01*
X48413D02*
Y-77940D01*
X50013D01*
Y-79540D01*
X48413D01*
X107468D02*
Y-77940D01*
X109068D01*
Y-79540D01*
X107468D01*
X284633Y-48044D02*
Y-46444D01*
X286233D01*
Y-48044D01*
X284633D01*
X343688D02*
Y-46444D01*
X345288D01*
Y-48044D01*
X343688D01*
X205893D02*
Y-46444D01*
X207493D01*
Y-48044D01*
X205893D01*
X264948D02*
Y-46444D01*
X266548D01*
Y-48044D01*
X264948D01*
X127153D02*
Y-46444D01*
X128753D01*
Y-48044D01*
X127153D01*
X186208D02*
Y-46444D01*
X187808D01*
Y-48044D01*
X186208D01*
X48413D02*
Y-46444D01*
X50013D01*
Y-48044D01*
X48413D01*
X107468D02*
Y-46444D01*
X109068D01*
Y-48044D01*
X107468D01*
X284633Y-16548D02*
Y-14948D01*
X286233D01*
Y-16548D01*
X284633D01*
X343688D02*
Y-14948D01*
X345288D01*
Y-16548D01*
X343688D01*
X205893Y-16548D02*
Y-14948D01*
X207493D01*
Y-16548D01*
X205893D01*
X264948D02*
Y-14948D01*
X266548D01*
Y-16548D01*
X264948D01*
X127153D02*
Y-14948D01*
X128753D01*
Y-16548D01*
X127153D01*
X186208D02*
Y-14948D01*
X187808D01*
Y-16548D01*
X186208D01*
X48413Y-16548D02*
Y-14948D01*
X50013D01*
Y-16548D01*
X48413D01*
X107468D02*
Y-14948D01*
X109068D01*
Y-16548D01*
X107468D01*
X284633Y14948D02*
Y16548D01*
X286233D01*
Y14948D01*
X284633D01*
X343688D02*
Y16548D01*
X345288D01*
Y14948D01*
X343688D01*
X205893D02*
Y16548D01*
X207493D01*
Y14948D01*
X205893D01*
X264948D02*
Y16548D01*
X266548D01*
Y14948D01*
X264948D01*
X127153D02*
Y16548D01*
X128753D01*
Y14948D01*
X127153D01*
X186208D02*
Y16548D01*
X187808D01*
Y14948D01*
X186208D01*
X48413D02*
Y16548D01*
X50013D01*
Y14948D01*
X48413D01*
X107468D02*
Y16548D01*
X109068D01*
Y14948D01*
X107468D01*
X284633Y46444D02*
Y48044D01*
X286233D01*
Y46444D01*
X284633D01*
X343688D02*
Y48044D01*
X345288D01*
Y46444D01*
X343688D01*
X205893D02*
Y48044D01*
X207493D01*
Y46444D01*
X205893D01*
X264948D02*
Y48044D01*
X266548D01*
Y46444D01*
X264948D01*
X127153D02*
Y48044D01*
X128753D01*
Y46444D01*
X127153D01*
X186208D02*
Y48044D01*
X187808D01*
Y46444D01*
X186208D01*
X48413D02*
Y48044D01*
X50013D01*
Y46444D01*
X48413D01*
X107468D02*
Y48044D01*
X109068D01*
Y46444D01*
X107468D01*
X284633Y77940D02*
Y79540D01*
X286233D01*
Y77940D01*
X284633D01*
X343688D02*
Y79540D01*
X345288D01*
Y77940D01*
X343688D01*
X205893D02*
Y79540D01*
X207493D01*
Y77940D01*
X205893D01*
X264948D02*
Y79540D01*
X266548D01*
Y77940D01*
X264948D01*
X127153D02*
Y79540D01*
X128753D01*
Y77940D01*
X127153D01*
X186208D02*
Y79540D01*
X187808D01*
Y77940D01*
X186208D01*
X48413D02*
Y79540D01*
X50013D01*
Y77940D01*
X48413D01*
X107468D02*
Y79540D01*
X109068D01*
Y77940D01*
X107468D01*
X284633Y109436D02*
Y111036D01*
X286233D01*
Y109436D01*
X284633D01*
X343688D02*
Y111036D01*
X345288D01*
Y109436D01*
X343688D01*
X205893D02*
Y111036D01*
X207493D01*
Y109436D01*
X205893D01*
X264948D02*
Y111036D01*
X266548D01*
Y109436D01*
X264948D01*
X127153D02*
Y111036D01*
X128753D01*
Y109436D01*
X127153D01*
X186208D02*
Y111036D01*
X187808D01*
Y109436D01*
X186208D01*
X48413Y109436D02*
Y111036D01*
X50013D01*
Y109436D01*
X48413D01*
X107468D02*
Y111036D01*
X109068D01*
Y109436D01*
X107468D01*
X334646Y-158280D02*
X333846Y-156680D01*
X335446D01*
X334646Y-158280D01*
X59055Y156680D02*
X58255Y158280D01*
X59855D01*
X59055Y156680D01*
Y-158280D02*
X58255Y-156680D01*
X59855D01*
X59055Y-158280D01*
X19685D02*
X18885Y-156680D01*
X20485D01*
X19685Y-158280D01*
Y156680D02*
X18885Y158280D01*
X20485D01*
X19685Y156680D01*
X334646D02*
X333846Y158280D01*
X335446D01*
X334646Y156680D01*
X374016D02*
X373216Y158280D01*
X374816D01*
X374016Y156680D01*
Y-158280D02*
X373216Y-156680D01*
X374816D01*
X374016Y-158280D01*
X7752Y-151391D02*
X8152Y-150991D01*
X8552D01*
X8152Y-150591D01*
X8552Y-150191D01*
X8152D01*
X7752Y-149791D01*
X7352Y-150191D01*
X6952D01*
X7352Y-150591D01*
X6952Y-150991D01*
X7352D01*
X7752Y-151391D01*
X19685Y-144501D02*
X20085Y-144101D01*
X20485D01*
X20085Y-143701D01*
X20485Y-143301D01*
X20085D01*
X19685Y-142901D01*
X19285Y-143301D01*
X18885D01*
X19285Y-143701D01*
X18885Y-144101D01*
X19285D01*
X19685Y-144501D01*
X12795Y-146347D02*
X13195Y-145947D01*
X13595D01*
X13195Y-145547D01*
X13595Y-145147D01*
X13195D01*
X12795Y-144747D01*
X12395Y-145147D01*
X11995D01*
X12395Y-145547D01*
X11995Y-145947D01*
X12395D01*
X12795Y-146347D01*
X7752Y-165170D02*
X8152Y-164770D01*
X8552D01*
X8152Y-164370D01*
X8552Y-163970D01*
X8152D01*
X7752Y-163570D01*
X7352Y-163970D01*
X6952D01*
X7352Y-164370D01*
X6952Y-164770D01*
X7352D01*
X7752Y-165170D01*
X5906Y-158280D02*
X6306Y-157880D01*
X6706D01*
X6306Y-157480D01*
X6706Y-157080D01*
X6306D01*
X5906Y-156680D01*
X5505Y-157080D01*
X5105D01*
X5505Y-157480D01*
X5105Y-157880D01*
X5505D01*
X5906Y-158280D01*
X12795Y-170214D02*
X13195Y-169814D01*
X13595D01*
X13195Y-169414D01*
X13595Y-169014D01*
X13195D01*
X12795Y-168614D01*
X12395Y-169014D01*
X11995D01*
X12395Y-169414D01*
X11995Y-169814D01*
X12395D01*
X12795Y-170214D01*
X26575D02*
X26975Y-169814D01*
X27375D01*
X26975Y-169414D01*
X27375Y-169014D01*
X26975D01*
X26575Y-168614D01*
X26175Y-169014D01*
X25775D01*
X26175Y-169414D01*
X25775Y-169814D01*
X26175D01*
X26575Y-170214D01*
X19685Y-172060D02*
X20085Y-171660D01*
X20485D01*
X20085Y-171260D01*
X20485Y-170860D01*
X20085D01*
X19685Y-170460D01*
X19285Y-170860D01*
X18885D01*
X19285Y-171260D01*
X18885Y-171660D01*
X19285D01*
X19685Y-172060D01*
X31618Y-165170D02*
X32019Y-164770D01*
X32419D01*
X32019Y-164370D01*
X32419Y-163970D01*
X32019D01*
X31618Y-163570D01*
X31218Y-163970D01*
X30819D01*
X31218Y-164370D01*
X30819Y-164770D01*
X31218D01*
X31618Y-165170D01*
Y-151391D02*
X32019Y-150991D01*
X32419D01*
X32019Y-150591D01*
X32419Y-150191D01*
X32019D01*
X31618Y-149791D01*
X31218Y-150191D01*
X30819D01*
X31218Y-150591D01*
X30819Y-150991D01*
X31218D01*
X31618Y-151391D01*
X33465Y-158280D02*
X33865Y-157880D01*
X34265D01*
X33865Y-157480D01*
X34265Y-157080D01*
X33865D01*
X33465Y-156680D01*
X33065Y-157080D01*
X32665D01*
X33065Y-157480D01*
X32665Y-157880D01*
X33065D01*
X33465Y-158280D01*
X26575Y-146347D02*
X26975Y-145947D01*
X27375D01*
X26975Y-145547D01*
X27375Y-145147D01*
X26975D01*
X26575Y-144747D01*
X26175Y-145147D01*
X25775D01*
X26175Y-145547D01*
X25775Y-145947D01*
X26175D01*
X26575Y-146347D01*
X47122Y-151391D02*
X47522Y-150991D01*
X47922D01*
X47522Y-150591D01*
X47922Y-150191D01*
X47522D01*
X47122Y-149791D01*
X46722Y-150191D01*
X46322D01*
X46722Y-150591D01*
X46322Y-150991D01*
X46722D01*
X47122Y-151391D01*
X59055Y-144501D02*
X59455Y-144101D01*
X59855D01*
X59455Y-143701D01*
X59855Y-143301D01*
X59455D01*
X59055Y-142901D01*
X58655Y-143301D01*
X58255D01*
X58655Y-143701D01*
X58255Y-144101D01*
X58655D01*
X59055Y-144501D01*
X52165Y-146347D02*
X52565Y-145947D01*
X52965D01*
X52565Y-145547D01*
X52965Y-145147D01*
X52565D01*
X52165Y-144747D01*
X51765Y-145147D01*
X51365D01*
X51765Y-145547D01*
X51365Y-145947D01*
X51765D01*
X52165Y-146347D01*
X47122Y-165170D02*
X47522Y-164770D01*
X47922D01*
X47522Y-164370D01*
X47922Y-163970D01*
X47522D01*
X47122Y-163570D01*
X46722Y-163970D01*
X46322D01*
X46722Y-164370D01*
X46322Y-164770D01*
X46722D01*
X47122Y-165170D01*
X45276Y-158280D02*
X45676Y-157880D01*
X46076D01*
X45676Y-157480D01*
X46076Y-157080D01*
X45676D01*
X45276Y-156680D01*
X44876Y-157080D01*
X44476D01*
X44876Y-157480D01*
X44476Y-157880D01*
X44876D01*
X45276Y-158280D01*
X52165Y-170214D02*
X52565Y-169814D01*
X52965D01*
X52565Y-169414D01*
X52965Y-169014D01*
X52565D01*
X52165Y-168614D01*
X51765Y-169014D01*
X51365D01*
X51765Y-169414D01*
X51365Y-169814D01*
X51765D01*
X52165Y-170214D01*
X65945D02*
X66345Y-169814D01*
X66745D01*
X66345Y-169414D01*
X66745Y-169014D01*
X66345D01*
X65945Y-168614D01*
X65545Y-169014D01*
X65145D01*
X65545Y-169414D01*
X65145Y-169814D01*
X65545D01*
X65945Y-170214D01*
X59055Y-172060D02*
X59455Y-171660D01*
X59855D01*
X59455Y-171260D01*
X59855Y-170860D01*
X59455D01*
X59055Y-170460D01*
X58655Y-170860D01*
X58255D01*
X58655Y-171260D01*
X58255Y-171660D01*
X58655D01*
X59055Y-172060D01*
X70989Y-165170D02*
X71389Y-164770D01*
X71789D01*
X71389Y-164370D01*
X71789Y-163970D01*
X71389D01*
X70989Y-163570D01*
X70588Y-163970D01*
X70188D01*
X70588Y-164370D01*
X70188Y-164770D01*
X70588D01*
X70989Y-165170D01*
Y-151391D02*
X71389Y-150991D01*
X71789D01*
X71389Y-150591D01*
X71789Y-150191D01*
X71389D01*
X70989Y-149791D01*
X70588Y-150191D01*
X70188D01*
X70588Y-150591D01*
X70188Y-150991D01*
X70588D01*
X70989Y-151391D01*
X72835Y-158280D02*
X73235Y-157880D01*
X73635D01*
X73235Y-157480D01*
X73635Y-157080D01*
X73235D01*
X72835Y-156680D01*
X72435Y-157080D01*
X72035D01*
X72435Y-157480D01*
X72035Y-157880D01*
X72435D01*
X72835Y-158280D01*
X65945Y-146347D02*
X66345Y-145947D01*
X66745D01*
X66345Y-145547D01*
X66745Y-145147D01*
X66345D01*
X65945Y-144747D01*
X65545Y-145147D01*
X65145D01*
X65545Y-145547D01*
X65145Y-145947D01*
X65545D01*
X65945Y-146347D01*
X362082Y-151391D02*
X362482Y-150991D01*
X362882D01*
X362482Y-150591D01*
X362882Y-150191D01*
X362482D01*
X362082Y-149791D01*
X361682Y-150191D01*
X361282D01*
X361682Y-150591D01*
X361282Y-150991D01*
X361682D01*
X362082Y-151391D01*
X374016Y-144501D02*
X374416Y-144101D01*
X374816D01*
X374416Y-143701D01*
X374816Y-143301D01*
X374416D01*
X374016Y-142901D01*
X373616Y-143301D01*
X373216D01*
X373616Y-143701D01*
X373216Y-144101D01*
X373616D01*
X374016Y-144501D01*
X367126Y-146347D02*
X367526Y-145947D01*
X367926D01*
X367526Y-145547D01*
X367926Y-145147D01*
X367526D01*
X367126Y-144747D01*
X366726Y-145147D01*
X366326D01*
X366726Y-145547D01*
X366326Y-145947D01*
X366726D01*
X367126Y-146347D01*
X362082Y-165170D02*
X362482Y-164770D01*
X362882D01*
X362482Y-164370D01*
X362882Y-163970D01*
X362482D01*
X362082Y-163570D01*
X361682Y-163970D01*
X361282D01*
X361682Y-164370D01*
X361282Y-164770D01*
X361682D01*
X362082Y-165170D01*
X360236Y-158280D02*
X360636Y-157880D01*
X361036D01*
X360636Y-157480D01*
X361036Y-157080D01*
X360636D01*
X360236Y-156680D01*
X359836Y-157080D01*
X359436D01*
X359836Y-157480D01*
X359436Y-157880D01*
X359836D01*
X360236Y-158280D01*
X367126Y-170214D02*
X367526Y-169814D01*
X367926D01*
X367526Y-169414D01*
X367926Y-169014D01*
X367526D01*
X367126Y-168614D01*
X366726Y-169014D01*
X366326D01*
X366726Y-169414D01*
X366326Y-169814D01*
X366726D01*
X367126Y-170214D01*
X380906D02*
X381306Y-169814D01*
X381705D01*
X381306Y-169414D01*
X381705Y-169014D01*
X381306D01*
X380906Y-168614D01*
X380505Y-169014D01*
X380105D01*
X380505Y-169414D01*
X380105Y-169814D01*
X380505D01*
X380906Y-170214D01*
X374016Y-172060D02*
X374416Y-171660D01*
X374816D01*
X374416Y-171260D01*
X374816Y-170860D01*
X374416D01*
X374016Y-170460D01*
X373616Y-170860D01*
X373216D01*
X373616Y-171260D01*
X373216Y-171660D01*
X373616D01*
X374016Y-172060D01*
X385949Y-165170D02*
X386349Y-164770D01*
X386749D01*
X386349Y-164370D01*
X386749Y-163970D01*
X386349D01*
X385949Y-163570D01*
X385549Y-163970D01*
X385149D01*
X385549Y-164370D01*
X385149Y-164770D01*
X385549D01*
X385949Y-165170D01*
Y-151391D02*
X386349Y-150991D01*
X386749D01*
X386349Y-150591D01*
X386749Y-150191D01*
X386349D01*
X385949Y-149791D01*
X385549Y-150191D01*
X385149D01*
X385549Y-150591D01*
X385149Y-150991D01*
X385549D01*
X385949Y-151391D01*
X387795Y-158280D02*
X388195Y-157880D01*
X388595D01*
X388195Y-157480D01*
X388595Y-157080D01*
X388195D01*
X387795Y-156680D01*
X387395Y-157080D01*
X386995D01*
X387395Y-157480D01*
X386995Y-157880D01*
X387395D01*
X387795Y-158280D01*
X380906Y-146347D02*
X381306Y-145947D01*
X381705D01*
X381306Y-145547D01*
X381705Y-145147D01*
X381306D01*
X380906Y-144747D01*
X380505Y-145147D01*
X380105D01*
X380505Y-145547D01*
X380105Y-145947D01*
X380505D01*
X380906Y-146347D01*
X362082Y163570D02*
X362482Y163970D01*
X362882D01*
X362482Y164370D01*
X362882Y164770D01*
X362482D01*
X362082Y165170D01*
X361682Y164770D01*
X361282D01*
X361682Y164370D01*
X361282Y163970D01*
X361682D01*
X362082Y163570D01*
X374016Y170460D02*
X374416Y170860D01*
X374816D01*
X374416Y171260D01*
X374816Y171660D01*
X374416D01*
X374016Y172060D01*
X373616Y171660D01*
X373216D01*
X373616Y171260D01*
X373216Y170860D01*
X373616D01*
X374016Y170460D01*
X367126Y168614D02*
X367526Y169014D01*
X367926D01*
X367526Y169414D01*
X367926Y169814D01*
X367526D01*
X367126Y170214D01*
X366726Y169814D01*
X366326D01*
X366726Y169414D01*
X366326Y169014D01*
X366726D01*
X367126Y168614D01*
X362082Y149791D02*
X362482Y150191D01*
X362882D01*
X362482Y150591D01*
X362882Y150991D01*
X362482D01*
X362082Y151391D01*
X361682Y150991D01*
X361282D01*
X361682Y150591D01*
X361282Y150191D01*
X361682D01*
X362082Y149791D01*
X360236Y156680D02*
X360636Y157080D01*
X361036D01*
X360636Y157480D01*
X361036Y157880D01*
X360636D01*
X360236Y158280D01*
X359836Y157880D01*
X359436D01*
X359836Y157480D01*
X359436Y157080D01*
X359836D01*
X360236Y156680D01*
X367126Y144747D02*
X367526Y145147D01*
X367926D01*
X367526Y145547D01*
X367926Y145947D01*
X367526D01*
X367126Y146347D01*
X366726Y145947D01*
X366326D01*
X366726Y145547D01*
X366326Y145147D01*
X366726D01*
X367126Y144747D01*
X380906D02*
X381306Y145147D01*
X381705D01*
X381306Y145547D01*
X381705Y145947D01*
X381306D01*
X380906Y146347D01*
X380505Y145947D01*
X380105D01*
X380505Y145547D01*
X380105Y145147D01*
X380505D01*
X380906Y144747D01*
X374016Y142901D02*
X374416Y143301D01*
X374816D01*
X374416Y143701D01*
X374816Y144101D01*
X374416D01*
X374016Y144501D01*
X373616Y144101D01*
X373216D01*
X373616Y143701D01*
X373216Y143301D01*
X373616D01*
X374016Y142901D01*
X385949Y149791D02*
X386349Y150191D01*
X386749D01*
X386349Y150591D01*
X386749Y150991D01*
X386349D01*
X385949Y151391D01*
X385549Y150991D01*
X385149D01*
X385549Y150591D01*
X385149Y150191D01*
X385549D01*
X385949Y149791D01*
Y163570D02*
X386349Y163970D01*
X386749D01*
X386349Y164370D01*
X386749Y164770D01*
X386349D01*
X385949Y165170D01*
X385549Y164770D01*
X385149D01*
X385549Y164370D01*
X385149Y163970D01*
X385549D01*
X385949Y163570D01*
X387795Y156680D02*
X388195Y157080D01*
X388595D01*
X388195Y157480D01*
X388595Y157880D01*
X388195D01*
X387795Y158280D01*
X387395Y157880D01*
X386995D01*
X387395Y157480D01*
X386995Y157080D01*
X387395D01*
X387795Y156680D01*
X380906Y168614D02*
X381306Y169014D01*
X381705D01*
X381306Y169414D01*
X381705Y169814D01*
X381306D01*
X380906Y170214D01*
X380505Y169814D01*
X380105D01*
X380505Y169414D01*
X380105Y169014D01*
X380505D01*
X380906Y168614D01*
X322712Y163570D02*
X323112Y163970D01*
X323512D01*
X323112Y164370D01*
X323512Y164770D01*
X323112D01*
X322712Y165170D01*
X322312Y164770D01*
X321912D01*
X322312Y164370D01*
X321912Y163970D01*
X322312D01*
X322712Y163570D01*
X334646Y170460D02*
X335046Y170860D01*
X335446D01*
X335046Y171260D01*
X335446Y171660D01*
X335046D01*
X334646Y172060D01*
X334246Y171660D01*
X333846D01*
X334246Y171260D01*
X333846Y170860D01*
X334246D01*
X334646Y170460D01*
X327756Y168614D02*
X328156Y169014D01*
X328556D01*
X328156Y169414D01*
X328556Y169814D01*
X328156D01*
X327756Y170214D01*
X327356Y169814D01*
X326956D01*
X327356Y169414D01*
X326956Y169014D01*
X327356D01*
X327756Y168614D01*
X322712Y149791D02*
X323112Y150191D01*
X323512D01*
X323112Y150591D01*
X323512Y150991D01*
X323112D01*
X322712Y151391D01*
X322312Y150991D01*
X321912D01*
X322312Y150591D01*
X321912Y150191D01*
X322312D01*
X322712Y149791D01*
X320866Y156680D02*
X321266Y157080D01*
X321666D01*
X321266Y157480D01*
X321666Y157880D01*
X321266D01*
X320866Y158280D01*
X320466Y157880D01*
X320066D01*
X320466Y157480D01*
X320066Y157080D01*
X320466D01*
X320866Y156680D01*
X327756Y144747D02*
X328156Y145147D01*
X328556D01*
X328156Y145547D01*
X328556Y145947D01*
X328156D01*
X327756Y146347D01*
X327356Y145947D01*
X326956D01*
X327356Y145547D01*
X326956Y145147D01*
X327356D01*
X327756Y144747D01*
X341535D02*
X341935Y145147D01*
X342335D01*
X341935Y145547D01*
X342335Y145947D01*
X341935D01*
X341535Y146347D01*
X341135Y145947D01*
X340735D01*
X341135Y145547D01*
X340735Y145147D01*
X341135D01*
X341535Y144747D01*
X334646Y142901D02*
X335046Y143301D01*
X335446D01*
X335046Y143701D01*
X335446Y144101D01*
X335046D01*
X334646Y144501D01*
X334246Y144101D01*
X333846D01*
X334246Y143701D01*
X333846Y143301D01*
X334246D01*
X334646Y142901D01*
X346579Y149791D02*
X346979Y150191D01*
X347379D01*
X346979Y150591D01*
X347379Y150991D01*
X346979D01*
X346579Y151391D01*
X346179Y150991D01*
X345779D01*
X346179Y150591D01*
X345779Y150191D01*
X346179D01*
X346579Y149791D01*
Y163570D02*
X346979Y163970D01*
X347379D01*
X346979Y164370D01*
X347379Y164770D01*
X346979D01*
X346579Y165170D01*
X346179Y164770D01*
X345779D01*
X346179Y164370D01*
X345779Y163970D01*
X346179D01*
X346579Y163570D01*
X348425Y156680D02*
X348825Y157080D01*
X349225D01*
X348825Y157480D01*
X349225Y157880D01*
X348825D01*
X348425Y158280D01*
X348025Y157880D01*
X347625D01*
X348025Y157480D01*
X347625Y157080D01*
X348025D01*
X348425Y156680D01*
X341535Y168614D02*
X341935Y169014D01*
X342335D01*
X341935Y169414D01*
X342335Y169814D01*
X341935D01*
X341535Y170214D01*
X341135Y169814D01*
X340735D01*
X341135Y169414D01*
X340735Y169014D01*
X341135D01*
X341535Y168614D01*
X47122Y163570D02*
X47522Y163970D01*
X47922D01*
X47522Y164370D01*
X47922Y164770D01*
X47522D01*
X47122Y165170D01*
X46722Y164770D01*
X46322D01*
X46722Y164370D01*
X46322Y163970D01*
X46722D01*
X47122Y163570D01*
X59055Y170460D02*
X59455Y170860D01*
X59855D01*
X59455Y171260D01*
X59855Y171660D01*
X59455D01*
X59055Y172060D01*
X58655Y171660D01*
X58255D01*
X58655Y171260D01*
X58255Y170860D01*
X58655D01*
X59055Y170460D01*
X52165Y168614D02*
X52565Y169014D01*
X52965D01*
X52565Y169414D01*
X52965Y169814D01*
X52565D01*
X52165Y170214D01*
X51765Y169814D01*
X51365D01*
X51765Y169414D01*
X51365Y169014D01*
X51765D01*
X52165Y168614D01*
X47122Y149791D02*
X47522Y150191D01*
X47922D01*
X47522Y150591D01*
X47922Y150991D01*
X47522D01*
X47122Y151391D01*
X46722Y150991D01*
X46322D01*
X46722Y150591D01*
X46322Y150191D01*
X46722D01*
X47122Y149791D01*
X45276Y156680D02*
X45676Y157080D01*
X46076D01*
X45676Y157480D01*
X46076Y157880D01*
X45676D01*
X45276Y158280D01*
X44876Y157880D01*
X44476D01*
X44876Y157480D01*
X44476Y157080D01*
X44876D01*
X45276Y156680D01*
X52165Y144747D02*
X52565Y145147D01*
X52965D01*
X52565Y145547D01*
X52965Y145947D01*
X52565D01*
X52165Y146347D01*
X51765Y145947D01*
X51365D01*
X51765Y145547D01*
X51365Y145147D01*
X51765D01*
X52165Y144747D01*
X65945D02*
X66345Y145147D01*
X66745D01*
X66345Y145547D01*
X66745Y145947D01*
X66345D01*
X65945Y146347D01*
X65545Y145947D01*
X65145D01*
X65545Y145547D01*
X65145Y145147D01*
X65545D01*
X65945Y144747D01*
X59055Y142901D02*
X59455Y143301D01*
X59855D01*
X59455Y143701D01*
X59855Y144101D01*
X59455D01*
X59055Y144501D01*
X58655Y144101D01*
X58255D01*
X58655Y143701D01*
X58255Y143301D01*
X58655D01*
X59055Y142901D01*
X70989Y149791D02*
X71389Y150191D01*
X71789D01*
X71389Y150591D01*
X71789Y150991D01*
X71389D01*
X70989Y151391D01*
X70588Y150991D01*
X70188D01*
X70588Y150591D01*
X70188Y150191D01*
X70588D01*
X70989Y149791D01*
Y163570D02*
X71389Y163970D01*
X71789D01*
X71389Y164370D01*
X71789Y164770D01*
X71389D01*
X70989Y165170D01*
X70588Y164770D01*
X70188D01*
X70588Y164370D01*
X70188Y163970D01*
X70588D01*
X70989Y163570D01*
X72835Y156680D02*
X73235Y157080D01*
X73635D01*
X73235Y157480D01*
X73635Y157880D01*
X73235D01*
X72835Y158280D01*
X72435Y157880D01*
X72035D01*
X72435Y157480D01*
X72035Y157080D01*
X72435D01*
X72835Y156680D01*
X65945Y168614D02*
X66345Y169014D01*
X66745D01*
X66345Y169414D01*
X66745Y169814D01*
X66345D01*
X65945Y170214D01*
X65545Y169814D01*
X65145D01*
X65545Y169414D01*
X65145Y169014D01*
X65545D01*
X65945Y168614D01*
X7752Y163570D02*
X8152Y163970D01*
X8552D01*
X8152Y164370D01*
X8552Y164770D01*
X8152D01*
X7752Y165170D01*
X7352Y164770D01*
X6952D01*
X7352Y164370D01*
X6952Y163970D01*
X7352D01*
X7752Y163570D01*
X19685Y170460D02*
X20085Y170860D01*
X20485D01*
X20085Y171260D01*
X20485Y171660D01*
X20085D01*
X19685Y172060D01*
X19285Y171660D01*
X18885D01*
X19285Y171260D01*
X18885Y170860D01*
X19285D01*
X19685Y170460D01*
X12795Y168614D02*
X13195Y169014D01*
X13595D01*
X13195Y169414D01*
X13595Y169814D01*
X13195D01*
X12795Y170214D01*
X12395Y169814D01*
X11995D01*
X12395Y169414D01*
X11995Y169014D01*
X12395D01*
X12795Y168614D01*
X7752Y149791D02*
X8152Y150191D01*
X8552D01*
X8152Y150591D01*
X8552Y150991D01*
X8152D01*
X7752Y151391D01*
X7352Y150991D01*
X6952D01*
X7352Y150591D01*
X6952Y150191D01*
X7352D01*
X7752Y149791D01*
X5906Y156680D02*
X6306Y157080D01*
X6706D01*
X6306Y157480D01*
X6706Y157880D01*
X6306D01*
X5906Y158280D01*
X5505Y157880D01*
X5105D01*
X5505Y157480D01*
X5105Y157080D01*
X5505D01*
X5906Y156680D01*
X12795Y144747D02*
X13195Y145147D01*
X13595D01*
X13195Y145547D01*
X13595Y145947D01*
X13195D01*
X12795Y146347D01*
X12395Y145947D01*
X11995D01*
X12395Y145547D01*
X11995Y145147D01*
X12395D01*
X12795Y144747D01*
X26575D02*
X26975Y145147D01*
X27375D01*
X26975Y145547D01*
X27375Y145947D01*
X26975D01*
X26575Y146347D01*
X26175Y145947D01*
X25775D01*
X26175Y145547D01*
X25775Y145147D01*
X26175D01*
X26575Y144747D01*
X19685Y142901D02*
X20085Y143301D01*
X20485D01*
X20085Y143701D01*
X20485Y144101D01*
X20085D01*
X19685Y144501D01*
X19285Y144101D01*
X18885D01*
X19285Y143701D01*
X18885Y143301D01*
X19285D01*
X19685Y142901D01*
X31618Y149791D02*
X32019Y150191D01*
X32419D01*
X32019Y150591D01*
X32419Y150991D01*
X32019D01*
X31618Y151391D01*
X31218Y150991D01*
X30819D01*
X31218Y150591D01*
X30819Y150191D01*
X31218D01*
X31618Y149791D01*
Y163570D02*
X32019Y163970D01*
X32419D01*
X32019Y164370D01*
X32419Y164770D01*
X32019D01*
X31618Y165170D01*
X31218Y164770D01*
X30819D01*
X31218Y164370D01*
X30819Y163970D01*
X31218D01*
X31618Y163570D01*
X33465Y156680D02*
X33865Y157080D01*
X34265D01*
X33865Y157480D01*
X34265Y157880D01*
X33865D01*
X33465Y158280D01*
X33065Y157880D01*
X32665D01*
X33065Y157480D01*
X32665Y157080D01*
X33065D01*
X33465Y156680D01*
X26575Y168614D02*
X26975Y169014D01*
X27375D01*
X26975Y169414D01*
X27375Y169814D01*
X26975D01*
X26575Y170214D01*
X26175Y169814D01*
X25775D01*
X26175Y169414D01*
X25775Y169014D01*
X26175D01*
X26575Y168614D01*
D29*
X84225Y171496D02*
G03*
X84225Y171496I-800J0D01*
G01*
X104225D02*
G03*
X104225Y171496I-800J0D01*
G01*
X94225D02*
G03*
X94225Y171496I-800J0D01*
G01*
X114225Y161496D02*
G03*
X114225Y161496I-800J0D01*
G01*
Y171496D02*
G03*
X114225Y171496I-800J0D01*
G01*
Y151496D02*
G03*
X114225Y151496I-800J0D01*
G01*
X104225Y141496D02*
G03*
X104225Y141496I-800J0D01*
G01*
X114225D02*
G03*
X114225Y141496I-800J0D01*
G01*
X94225D02*
G03*
X94225Y141496I-800J0D01*
G01*
X84225D02*
G03*
X84225Y141496I-800J0D01*
G01*
Y151496D02*
G03*
X84225Y151496I-800J0D01*
G01*
Y161496D02*
G03*
X84225Y161496I-800J0D01*
G01*
X94225Y151496D02*
G03*
X94225Y151496I-800J0D01*
G01*
Y161496D02*
G03*
X94225Y161496I-800J0D01*
G01*
X104225Y151496D02*
G03*
X104225Y151496I-800J0D01*
G01*
Y161496D02*
G03*
X104225Y161496I-800J0D01*
G01*
X311076Y-171496D02*
G03*
X311076Y-171496I-800J0D01*
G01*
X291076D02*
G03*
X291076Y-171496I-800J0D01*
G01*
X301076D02*
G03*
X301076Y-171496I-800J0D01*
G01*
X281076Y-161496D02*
G03*
X281076Y-161496I-800J0D01*
G01*
Y-171496D02*
G03*
X281076Y-171496I-800J0D01*
G01*
Y-151496D02*
G03*
X281076Y-151496I-800J0D01*
G01*
X291076Y-141496D02*
G03*
X291076Y-141496I-800J0D01*
G01*
X281076D02*
G03*
X281076Y-141496I-800J0D01*
G01*
X301076D02*
G03*
X301076Y-141496I-800J0D01*
G01*
X311076D02*
G03*
X311076Y-141496I-800J0D01*
G01*
Y-151496D02*
G03*
X311076Y-151496I-800J0D01*
G01*
Y-161496D02*
G03*
X311076Y-161496I-800J0D01*
G01*
X301076Y-151496D02*
G03*
X301076Y-151496I-800J0D01*
G01*
Y-161496D02*
G03*
X301076Y-161496I-800J0D01*
G01*
X291076Y-151496D02*
G03*
X291076Y-151496I-800J0D01*
G01*
Y-161496D02*
G03*
X291076Y-161496I-800J0D01*
G01*
X281076Y171496D02*
G03*
X281076Y171496I-800J0D01*
G01*
X301076D02*
G03*
X301076Y171496I-800J0D01*
G01*
X291076D02*
G03*
X291076Y171496I-800J0D01*
G01*
X311076Y161496D02*
G03*
X311076Y161496I-800J0D01*
G01*
Y171496D02*
G03*
X311076Y171496I-800J0D01*
G01*
Y151496D02*
G03*
X311076Y151496I-800J0D01*
G01*
X301076Y141496D02*
G03*
X301076Y141496I-800J0D01*
G01*
X311076D02*
G03*
X311076Y141496I-800J0D01*
G01*
X291076D02*
G03*
X291076Y141496I-800J0D01*
G01*
X281076D02*
G03*
X281076Y141496I-800J0D01*
G01*
Y151496D02*
G03*
X281076Y151496I-800J0D01*
G01*
Y161496D02*
G03*
X281076Y161496I-800J0D01*
G01*
X291076Y151496D02*
G03*
X291076Y151496I-800J0D01*
G01*
Y161496D02*
G03*
X291076Y161496I-800J0D01*
G01*
X301076Y151496D02*
G03*
X301076Y151496I-800J0D01*
G01*
Y161496D02*
G03*
X301076Y161496I-800J0D01*
G01*
X114225Y-171496D02*
G03*
X114225Y-171496I-800J0D01*
G01*
X94225D02*
G03*
X94225Y-171496I-800J0D01*
G01*
X104225D02*
G03*
X104225Y-171496I-800J0D01*
G01*
X84225Y-161496D02*
G03*
X84225Y-161496I-800J0D01*
G01*
Y-171496D02*
G03*
X84225Y-171496I-800J0D01*
G01*
Y-151496D02*
G03*
X84225Y-151496I-800J0D01*
G01*
X94225Y-141496D02*
G03*
X94225Y-141496I-800J0D01*
G01*
X84225D02*
G03*
X84225Y-141496I-800J0D01*
G01*
X104225D02*
G03*
X104225Y-141496I-800J0D01*
G01*
X114225D02*
G03*
X114225Y-141496I-800J0D01*
G01*
Y-151496D02*
G03*
X114225Y-151496I-800J0D01*
G01*
Y-161496D02*
G03*
X114225Y-161496I-800J0D01*
G01*
X104225Y-151496D02*
G03*
X104225Y-151496I-800J0D01*
G01*
Y-161496D02*
G03*
X104225Y-161496I-800J0D01*
G01*
X94225Y-151496D02*
G03*
X94225Y-151496I-800J0D01*
G01*
Y-161496D02*
G03*
X94225Y-161496I-800J0D01*
G01*
M02*
